<svg width="400" height="400" viewBox="0 0 400 400" fill="none" xmlns="http://www.w3.org/2000/svg">
<circle cx="200" cy="182" r="132" stroke="black" stroke-width="2"/>
<circle cx="200" cy="182" r="132" stroke="black" stroke-width="2"/>
<path d="M119.844 229.631C133.944 229.963 150.019 228.303 166.783 226.454C177.241 228.506 188.178 229.431 198.36 229.631C216.365 229.985 232.182 228.077 239.011 226.039C239.873 225.781 240.616 225.515 241.214 225.241C241.788 224.978 242.323 224.666 242.68 224.279C242.865 224.079 243.051 223.806 243.126 223.46C243.206 223.086 243.135 222.721 242.955 222.41C242.643 221.873 242.044 221.563 241.511 221.358C240.366 220.918 238.466 220.588 235.8 220.36C233.105 220.131 229.538 220 225 220C206.877 220 188.059 222.085 170.079 224.077L169.992 224.086C168.948 224.202 167.907 224.317 166.869 224.432C159.059 222.881 151.553 220.694 144.878 217.704C129.357 210.75 118.498 199.551 118.498 182C118.498 164.267 127.993 147.264 141.323 131.658C154.641 116.066 171.667 102.004 186.503 90.1502C188.193 88.7999 189.855 87.4776 191.48 86.1847C196.976 81.8133 202.048 77.7784 206.336 74.1348C211.87 69.4318 216.205 65.2928 218.466 61.8426C219.593 60.1216 220.295 58.4399 220.25 56.861C220.202 55.1948 219.333 53.8374 217.769 52.8225C216.251 51.8376 214.043 51.1442 211.149 50.6885C208.239 50.2301 204.547 50 199.998 50C127.096 50 67.9976 109.098 67.9976 182C67.9976 200.285 73.2926 212.107 82.5811 219.403C91.8132 226.654 104.801 229.276 119.844 229.631Z" stroke="black" stroke-width="2"/>
<path d="M218.406 137.503C218.178 137.526 217.95 137.549 217.722 137.572C207.274 135.367 196.311 134.361 186.143 134.119C168.639 133.702 153.317 135.546 146.855 137.542C146.038 137.794 145.335 138.057 144.774 138.33C144.242 138.589 143.724 138.911 143.397 139.33C143.222 139.554 143.063 139.857 143.04 140.228C143.016 140.615 143.149 140.954 143.345 141.218C143.693 141.684 144.276 141.97 144.838 142.171C146.027 142.596 147.958 142.921 150.657 143.145C153.38 143.371 156.962 143.5 161.5 143.5C179.013 143.5 197.965 141.582 216.584 139.697C216.927 139.662 217.27 139.628 217.612 139.593C224.928 141.155 231.957 143.313 238.235 146.213C253.375 153.208 264.001 164.434 264.001 182C264.001 199.773 255.561 216.792 243.87 232.391C232.184 247.983 217.339 262.042 204.686 273.901C204.271 274.29 203.859 274.676 203.449 275.06C197.617 280.523 192.291 285.513 188.051 289.935C183.539 294.64 180.139 298.817 178.708 302.328C177.986 304.1 177.717 305.816 178.172 307.389C178.635 308.986 179.791 310.252 181.539 311.214C184.953 313.095 190.956 314 200 314C272.902 314 332.001 254.901 332.001 182C332.001 163.659 325.824 151.804 315.26 144.483C304.775 137.218 290.126 134.536 273.406 134.119C256.666 133.701 237.675 135.555 218.406 137.503Z" stroke="black" stroke-width="2"/>
<path d="M238.098 215.312C237.348 215.898 236.504 216.297 235.566 216.508C234.629 216.719 233.668 216.824 232.684 216.824C229.191 216.824 226.121 216.297 223.473 215.242C220.824 214.188 218.516 212.746 216.547 210.918C214.602 209.09 212.973 206.934 211.66 204.449C210.348 201.988 209.281 199.34 208.461 196.504C207.664 193.645 207.066 190.691 206.668 187.645C206.293 184.574 206.059 181.527 205.965 178.504C205.895 175.48 205.93 172.551 206.07 169.715C206.234 166.879 206.445 164.277 206.703 161.91C205.344 163.645 204.055 165.73 202.836 168.168C201.617 170.605 200.48 173.219 199.426 176.008C198.395 178.797 197.434 181.668 196.543 184.621C195.652 187.551 194.844 190.41 194.117 193.199C193.414 195.988 192.781 198.602 192.219 201.039C191.68 203.477 191.223 205.562 190.848 207.297C190.801 207.484 190.742 207.73 190.672 208.035C190.625 208.34 190.531 208.633 190.391 208.914C190.273 209.195 190.109 209.43 189.898 209.617C189.688 209.828 189.43 209.934 189.125 209.934C188.844 209.934 188.574 209.84 188.316 209.652C188.059 209.488 187.824 209.277 187.613 209.02C187.402 208.785 187.215 208.516 187.051 208.211C186.91 207.93 186.805 207.66 186.734 207.402C186.031 205.129 185.504 202.68 185.152 200.055C184.824 197.453 184.59 194.816 184.449 192.145C184.332 189.449 184.273 186.777 184.273 184.129C184.297 181.48 184.309 178.973 184.309 176.605C184.309 173.98 184.344 171.355 184.414 168.73C184.484 166.105 184.613 163.48 184.801 160.855C184.871 159.918 184.965 158.875 185.082 157.727C185.223 156.578 185.492 155.512 185.891 154.527C186.289 153.543 186.863 152.723 187.613 152.066C188.363 151.387 189.395 151.047 190.707 151.047C191.035 151.047 191.305 151.129 191.516 151.293C191.75 151.434 191.867 151.691 191.867 152.066V152.348C191.562 155.137 191.281 157.879 191.023 160.574C190.766 163.246 190.531 165.918 190.32 168.59C190.133 171.262 189.98 173.957 189.863 176.676C189.77 179.371 189.723 182.137 189.723 184.973C189.723 187.738 189.781 190.516 189.898 193.305C190.016 196.07 190.215 198.836 190.496 201.602C191.363 197.617 192.266 193.727 193.203 189.93C194.164 186.133 195.254 182.418 196.473 178.785C197.691 175.129 199.098 171.566 200.691 168.098C202.285 164.629 204.148 161.23 206.281 157.902C206.469 157.598 206.703 157.246 206.984 156.848C207.289 156.426 207.617 156.039 207.969 155.688C208.344 155.312 208.73 154.996 209.129 154.738C209.527 154.48 209.938 154.352 210.359 154.352C210.875 154.352 211.273 154.586 211.555 155.055C211.859 155.523 212.07 156.074 212.188 156.707C212.328 157.316 212.41 157.938 212.434 158.57C212.457 159.203 212.469 159.695 212.469 160.047C212.305 162.25 212.105 164.723 211.871 167.465C211.66 170.207 211.52 173.078 211.449 176.078C211.379 179.078 211.414 182.125 211.555 185.219C211.719 188.312 212.082 191.312 212.645 194.219C213.207 197.102 214.027 199.809 215.105 202.34C216.184 204.895 217.602 207.121 219.359 209.02C221.141 210.918 223.297 212.418 225.828 213.52C228.383 214.621 231.418 215.172 234.934 215.172C235.426 215.172 235.93 215.125 236.445 215.031C236.984 214.961 237.488 214.82 237.957 214.609L238.098 215.312Z" fill="black"/>
<path d="M53.8194 158.099C53.7576 158.091 53.6973 158.07 53.6387 158.039C53.5867 158.015 53.5391 157.989 53.496 157.959C53.3057 157.854 53.1199 157.745 52.9384 157.632C52.757 157.52 52.5706 157.415 52.3792 157.317C51.5442 156.916 50.596 156.561 49.5347 156.254C48.48 155.956 47.3674 155.705 46.1969 155.501C46.1564 155.676 46.1165 155.848 46.0771 156.016C46.0454 156.186 46.0171 156.359 45.992 156.537C45.942 156.893 45.9036 157.278 45.8769 157.692C45.8501 158.107 45.8322 158.514 45.8231 158.916C45.8218 159.318 45.832 159.694 45.8538 160.044C45.8744 160.402 45.9071 160.702 45.9518 160.945L45.793 161.065C45.4577 160.308 45.2404 159.441 45.141 158.465C45.0417 157.488 45.0273 156.441 45.0978 155.322C43.8235 155.127 42.5614 154.985 41.3116 154.896C40.0541 154.806 38.8685 154.766 37.7548 154.775L37.6897 154.564C38.2319 154.412 38.8084 154.296 39.4192 154.216C40.03 154.136 40.6574 154.079 41.3015 154.043C41.9445 154.015 42.5963 154.008 43.257 154.022C43.9167 154.044 44.567 154.076 45.2079 154.119C45.2219 153.963 45.2403 153.804 45.2632 153.642C45.285 153.487 45.3073 153.328 45.3301 153.166C45.3497 153.027 45.3764 152.865 45.4103 152.68C45.4508 152.504 45.5057 152.338 45.5749 152.183C45.6519 152.028 45.7522 151.904 45.8758 151.811C46.007 151.719 46.1732 151.687 46.3744 151.715C46.5059 151.734 46.6099 151.78 46.6863 151.854C46.7693 151.936 46.8314 152.028 46.8725 152.128C46.9202 152.238 46.9475 152.352 46.9544 152.471C46.968 152.599 46.9666 152.721 46.9502 152.837C46.9415 152.899 46.9295 152.957 46.9141 153.01C46.8977 153.071 46.8774 153.131 46.8532 153.191C46.805 153.365 46.7529 153.54 46.6969 153.713C46.6487 153.888 46.6004 154.062 46.5522 154.237C46.8484 154.263 47.1396 154.296 47.4258 154.336C47.7198 154.378 48.0022 154.417 48.2729 154.455C48.536 154.492 48.841 154.539 49.1881 154.596C49.5428 154.654 49.9153 154.726 50.3055 154.812C50.6946 154.907 51.0821 155.012 51.468 155.13C51.8605 155.256 52.2265 155.402 52.566 155.568C52.9056 155.734 53.2021 155.926 53.4556 156.143C53.7091 156.36 53.8952 156.607 54.014 156.884C54.0652 157.026 54.1113 157.174 54.1526 157.33C54.2004 157.494 54.2146 157.646 54.195 157.785C54.1612 158.025 54.0361 158.13 53.8194 158.099ZM56.0561 167.017C55.7023 166.392 55.4196 165.681 55.208 164.886C55.0041 164.092 54.8554 163.271 54.7618 162.421C54.6683 161.572 54.6289 160.73 54.6437 159.896C54.6585 159.062 54.7153 158.293 54.8144 157.589C54.8448 157.372 54.8951 157.099 54.9651 156.77C55.0351 156.44 55.1205 156.085 55.2213 155.705C55.321 155.332 55.4379 154.95 55.5718 154.559C55.7135 154.169 55.8641 153.799 56.0235 153.451C56.1896 153.111 56.3696 152.813 56.5635 152.557C56.7574 152.3 56.9609 152.115 57.1739 152.003C57.3174 151.937 57.4769 151.868 57.6524 151.798C57.8357 151.73 58.0124 151.707 58.1826 151.731C58.3992 151.762 58.4906 151.897 58.4569 152.136C58.4482 152.198 58.4367 152.252 58.4225 152.297C58.4082 152.343 58.389 152.395 58.3648 152.455C58.2306 152.736 58.0947 153.001 57.9572 153.25C57.8185 153.506 57.6865 153.772 57.5611 154.046C57.2128 154.952 56.9182 155.869 56.6771 156.797C56.4427 157.735 56.2575 158.687 56.1215 159.654C55.9561 160.83 55.8753 162.049 55.8791 163.312C55.8829 164.575 56.0159 165.789 56.2781 166.954L56.0561 167.017Z" fill="black"/>
<path d="M41.3307 174.307C40.8272 174.034 40.4337 173.664 40.1503 173.197C39.8747 172.73 39.7503 172.209 39.777 171.631C39.799 171.155 39.9631 170.736 40.2692 170.375C40.5753 170.014 40.9692 169.7 41.4508 169.433C41.932 169.173 42.47 168.956 43.0647 168.78C43.6669 168.612 44.2754 168.476 44.8902 168.372C45.5047 168.275 46.0944 168.209 46.6592 168.172C47.2314 168.144 47.7282 168.14 48.1497 168.159C48.6647 168.183 49.2293 168.236 49.8433 168.32C50.4573 168.403 51.0735 168.521 51.6921 168.675C52.3184 168.829 52.9237 169.017 53.5077 169.24C54.0915 169.47 54.6031 169.737 55.0428 170.038C55.4898 170.349 55.8413 170.697 56.0971 171.084C56.3607 171.472 56.4813 171.908 56.4589 172.392C56.4397 172.805 56.3032 173.135 56.0494 173.382C55.7955 173.628 55.4857 173.817 55.1198 173.949C54.7618 174.081 54.3827 174.161 53.9825 174.189C53.5819 174.225 53.2256 174.236 52.9134 174.222C52.0706 174.183 51.2441 174.043 50.4341 173.802C49.6315 173.569 48.8754 173.261 48.1659 172.876C47.4638 172.499 46.8271 172.063 46.2556 171.567C45.692 171.072 45.2236 170.546 44.8506 169.989C44.3226 170.074 43.8055 170.179 43.2992 170.304C42.8003 170.438 42.3507 170.604 41.9503 170.805C41.5578 171.006 41.2341 171.241 40.9792 171.511C40.7317 171.789 40.5994 172.111 40.5824 172.478C40.5655 172.845 40.625 173.164 40.761 173.436C40.897 173.708 41.1041 173.964 41.3824 174.204L41.3307 174.307ZM48.7767 169.819C48.6054 169.803 48.3948 169.789 48.1451 169.778C47.895 169.774 47.6174 169.773 47.3123 169.774C47.0147 169.784 46.6933 169.8 46.3481 169.824C46.0029 169.847 45.6494 169.881 45.2875 169.927C45.7315 170.472 46.2299 170.94 46.7826 171.334C47.3353 171.727 47.9341 172.056 48.5788 172.32C49.2313 172.585 49.9181 172.785 50.6392 172.92C51.3677 173.063 52.1261 173.153 52.9143 173.189C53.0157 173.194 53.1486 173.196 53.3128 173.196C53.4767 173.204 53.6529 173.2 53.8412 173.185C54.0296 173.171 54.2186 173.144 54.408 173.106C54.5971 173.076 54.7676 173.025 54.9195 172.954C55.0789 172.891 55.2081 172.803 55.3071 172.69C55.4136 172.586 55.4705 172.455 55.4777 172.299C55.4915 172.003 55.3553 171.734 55.0692 171.494C54.7906 171.262 54.4287 171.054 53.9837 170.869C53.5383 170.692 53.0449 170.536 52.5037 170.402C51.9621 170.275 51.4391 170.169 50.9348 170.083C50.4382 169.997 49.9914 169.934 49.5945 169.892C49.1976 169.85 48.925 169.826 48.7767 169.819Z" fill="black"/>
<path d="M41.9008 187.283C41.5982 187.088 41.314 186.85 41.048 186.568C40.7823 186.295 40.5508 185.989 40.3536 185.65C40.1566 185.32 39.9981 184.969 39.8781 184.597C39.7583 184.233 39.693 183.864 39.6824 183.489C39.6672 182.958 39.7234 182.46 39.8508 181.995C39.9704 181.531 40.1659 181.123 40.4372 180.771C40.7085 180.419 41.0523 180.14 41.4684 179.933C41.8924 179.725 42.3894 179.613 42.9595 179.597C43.5217 179.581 44.0478 179.668 44.5378 179.857C45.0358 180.054 45.4696 180.327 45.839 180.676C46.2165 181.032 46.5177 181.453 46.7426 181.939C46.9675 182.425 47.088 182.949 47.104 183.512C47.1116 183.777 47.0795 184.024 47.0079 184.253C46.9443 184.489 46.8408 184.696 46.6973 184.872C46.5616 185.047 46.3897 185.185 46.1815 185.285C45.9735 185.392 45.7329 185.45 45.4596 185.458C45.1316 185.467 44.8408 185.409 44.5871 185.283C44.3334 185.158 44.1097 184.988 43.9161 184.775C43.7224 184.562 43.5591 184.316 43.4261 184.039C43.2934 183.769 43.1836 183.483 43.0968 183.181C43.0103 182.886 42.9432 182.591 42.8957 182.295C42.8562 182.007 42.8331 181.742 42.8262 181.5L42.8181 181.219C42.1104 181.341 41.5757 181.637 41.2139 182.109C40.8522 182.58 40.683 183.222 40.7061 184.034C40.7226 184.612 40.8402 185.171 41.0588 185.712C41.2777 186.261 41.573 186.753 41.945 187.188L41.9008 187.283ZM43.1686 181.174L43.1769 181.467C43.1849 181.748 43.2361 182.035 43.3305 182.33C43.4327 182.624 43.573 182.886 43.7515 183.115C43.938 183.352 44.1623 183.545 44.4245 183.694C44.6867 183.843 44.9817 183.912 45.3097 183.903C45.6299 183.894 45.8934 183.816 46.1003 183.669C46.3073 183.531 46.4061 183.293 46.3965 182.957C46.3867 182.614 46.2729 182.324 46.0552 182.088C45.8454 181.859 45.5862 181.675 45.2774 181.536C44.9764 181.396 44.657 181.295 44.3192 181.235C43.9894 181.182 43.6957 181.159 43.438 181.166L43.1686 181.174ZM48.0445 181.961C48.3326 182.195 48.6203 182.417 48.9077 182.628C49.195 182.839 49.4899 183.037 49.7922 183.224C50.1023 183.411 50.4276 183.581 50.7681 183.736C51.1086 183.89 51.4799 184.028 51.8819 184.149L50.9173 185.677C50.2397 185.212 49.658 184.686 49.1723 184.098C48.6946 183.517 48.2653 182.849 47.8842 182.094L48.0445 181.961Z" fill="black"/>
<path d="M43.012 198.984C42.6569 198.817 42.3303 198.584 42.0323 198.285C41.7428 197.993 41.4847 197.662 41.2579 197.293C41.0397 196.931 40.8623 196.544 40.7255 196.135C40.5818 195.733 40.4902 195.342 40.4507 194.961C40.4024 194.495 40.4272 194.053 40.5252 193.634C40.624 193.223 40.7898 192.853 41.0226 192.522C41.264 192.199 41.5623 191.932 41.9176 191.722C42.2814 191.52 42.7043 191.394 43.1861 191.344C43.73 191.287 44.2724 191.329 44.8132 191.469C45.3548 191.618 45.8457 191.845 46.2861 192.153C46.7272 192.469 47.0932 192.855 47.384 193.312C47.6834 193.776 47.8625 194.291 47.9214 194.858C47.9407 195.045 47.9406 195.233 47.9211 195.424C47.9015 195.615 47.8532 195.792 47.7761 195.957C47.7067 196.122 47.603 196.258 47.465 196.367C47.3279 196.483 47.1466 196.553 46.9213 196.576C46.6959 196.6 46.4917 196.562 46.3087 196.463C46.1334 196.363 45.9821 196.23 45.8548 196.062C45.7275 195.895 45.618 195.71 45.5263 195.507C45.4432 195.312 45.3764 195.122 45.326 194.939L45.4892 194.922C45.5315 195.028 45.5863 195.14 45.6536 195.258C45.7217 195.385 45.8041 195.498 45.9009 195.598C45.9977 195.698 46.1079 195.777 46.2318 195.835C46.3564 195.9 46.4886 195.926 46.6285 195.911C46.7373 195.9 46.8238 195.864 46.8881 195.802C46.961 195.747 47.0167 195.679 47.0553 195.596C47.0947 195.521 47.1212 195.436 47.1348 195.341C47.1485 195.245 47.1505 195.15 47.1408 195.057C47.0997 194.661 46.9733 194.313 46.7616 194.013C46.5584 193.719 46.3017 193.479 45.9917 193.291C45.6816 193.103 45.3418 192.97 44.9722 192.89C44.6035 192.819 44.2365 192.802 43.8713 192.839C43.4517 192.883 43.0812 192.984 42.76 193.143C42.4473 193.309 42.1865 193.521 41.9775 193.778C41.7685 194.035 41.6192 194.337 41.5295 194.685C41.4398 195.032 41.4163 195.411 41.459 195.823C41.4864 196.087 41.5426 196.364 41.6276 196.654C41.7212 196.95 41.8369 197.233 41.9746 197.501C42.1132 197.778 42.2735 198.036 42.4555 198.276C42.6375 198.516 42.8353 198.72 43.0489 198.886L43.012 198.984Z" fill="black"/>
<path d="M45.0766 210.976C44.7613 210.859 44.4596 210.708 44.1715 210.522C43.8847 210.345 43.6238 210.134 43.3887 209.891C43.155 209.656 42.9593 209.39 42.8017 209.094C42.6364 208.798 42.5228 208.481 42.4609 208.143C42.3694 207.644 42.3729 207.186 42.4716 206.771C42.5717 206.364 42.7386 205.996 42.9722 205.667C43.2135 205.337 43.5094 205.044 43.8599 204.789C44.2103 204.535 44.5832 204.315 44.9784 204.132C45.3814 203.947 45.7976 203.791 46.2272 203.665C46.6568 203.538 47.0714 203.439 47.471 203.365C47.8399 203.298 48.2192 203.244 48.6091 203.205C49.0066 203.164 49.4147 203.136 49.8332 203.123C49.7819 202.886 49.7351 202.653 49.6929 202.422C49.6521 202.199 49.6112 201.977 49.5704 201.754C49.5437 201.608 49.5172 201.442 49.4911 201.256C49.465 201.07 49.4641 200.892 49.4883 200.72C49.5126 200.549 49.5686 200.4 49.6565 200.273C49.7444 200.145 49.892 200.063 50.0995 200.025C50.2148 200.003 50.3112 200.01 50.3888 200.043C50.465 200.069 50.5255 200.117 50.5704 200.189C50.6215 200.251 50.66 200.331 50.686 200.429C50.7182 200.519 50.7435 200.613 50.7618 200.713C50.7829 200.829 50.8137 201.105 50.8541 201.542C50.8945 201.98 50.9473 202.506 51.0124 203.122C51.9544 203.148 52.8908 203.23 53.8218 203.37C54.7541 203.516 55.6167 203.716 56.4094 203.968L56.439 204.129C55.5563 204.037 54.6709 203.973 53.7827 203.937C52.8959 203.908 52.0061 203.929 51.1131 203.997C51.1775 204.565 51.2485 205.147 51.3261 205.745C51.4129 206.348 51.5083 206.935 51.6125 207.503C51.766 208.341 51.8982 209.02 52.0093 209.539C52.1204 210.059 52.215 210.467 52.2929 210.762C52.3884 211.11 52.4677 211.369 52.5308 211.541L52.3433 211.623C52.1513 211.181 51.9511 210.674 51.7428 210.1C51.5422 209.526 51.3422 208.911 51.1429 208.256C50.9513 207.601 50.7631 206.92 50.5784 206.215C50.3937 205.511 50.2212 204.808 50.0609 204.106C49.9044 204.119 49.7455 204.14 49.5841 204.17C49.4304 204.198 49.2767 204.226 49.123 204.254C48.7542 204.322 48.3497 204.412 47.9096 204.524C47.4709 204.644 47.0334 204.792 46.5969 204.967C46.168 205.141 45.7525 205.344 45.3504 205.577C44.9573 205.815 44.6187 206.092 44.3347 206.406C44.0599 206.726 43.8556 207.086 43.722 207.483C43.5883 207.881 43.5666 208.326 43.6567 208.818C43.7397 209.271 43.9142 209.66 44.1802 209.985C44.4476 210.317 44.7575 210.622 45.1101 210.899L45.0766 210.976Z" fill="black"/>
<path d="M48.1513 223.129C47.8123 223.008 47.4812 222.841 47.1579 222.628C46.8367 222.422 46.5414 222.177 46.2721 221.893C46.0048 221.616 45.7702 221.311 45.5684 220.976C45.3686 220.649 45.2207 220.305 45.1246 219.942C44.9885 219.429 44.9294 218.931 44.9472 218.45C44.9575 217.97 45.0546 217.528 45.2384 217.124C45.4222 216.719 45.693 216.369 46.0507 216.072C46.416 215.773 46.8743 215.55 47.4256 215.404C47.9693 215.26 48.5013 215.224 49.0216 215.297C49.5514 215.374 50.036 215.541 50.4755 215.796C50.9245 216.057 51.3139 216.398 51.6439 216.82C51.9739 217.242 52.211 217.725 52.3551 218.268C52.4231 218.525 52.4484 218.773 52.4309 219.012C52.423 219.257 52.3693 219.481 52.2699 219.685C52.178 219.887 52.0421 220.061 51.8622 220.205C51.6843 220.358 51.4632 220.469 51.1989 220.539C50.8817 220.623 50.5853 220.633 50.3096 220.568C50.034 220.504 49.7775 220.39 49.5402 220.227C49.3029 220.063 49.0878 219.862 48.8949 219.622C48.7041 219.39 48.5318 219.136 48.3783 218.862C48.2267 218.595 48.094 218.323 47.9802 218.046C47.8759 217.774 47.7928 217.522 47.7307 217.287L47.6587 217.016C46.9975 217.296 46.5447 217.707 46.3003 218.249C46.0559 218.79 46.0378 219.454 46.2459 220.239C46.394 220.798 46.6363 221.316 46.9727 221.792C47.3112 222.276 47.7112 222.688 48.1726 223.026L48.1513 223.129ZM47.9895 216.892L48.0645 217.175C48.1366 217.447 48.2522 217.715 48.4113 217.98C48.578 218.243 48.7744 218.466 49.0006 218.648C49.2363 218.836 49.4988 218.973 49.7881 219.058C50.0773 219.143 50.3805 219.143 50.6977 219.059C51.0073 218.977 51.2461 218.841 51.4139 218.651C51.5838 218.469 51.6257 218.215 51.5396 217.89C51.4516 217.558 51.2746 217.302 51.0086 217.122C50.7522 216.947 50.4578 216.827 50.1252 216.762C49.8002 216.695 49.4664 216.67 49.1236 216.688C48.7904 216.712 48.4992 216.756 48.25 216.823L47.9895 216.892Z" fill="black"/>
<path d="M52.4654 235.769C52.1239 235.741 51.7989 235.665 51.4902 235.542C51.1842 235.427 50.9048 235.281 50.652 235.105C50.4065 234.927 50.1953 234.728 50.0184 234.509C49.834 234.293 49.7014 234.07 49.6207 233.842C49.4695 233.415 49.4155 233.028 49.4585 232.681C49.5016 232.334 49.6157 232.024 49.801 231.752C49.9863 231.479 50.234 231.242 50.5441 231.041C50.8542 230.84 51.2008 230.672 51.5838 230.537C51.8784 230.432 52.1918 230.346 52.5242 230.279C52.8565 230.211 53.1843 230.165 53.5076 230.142C53.557 230.141 53.6137 230.138 53.6779 230.131C53.7494 230.123 53.8072 230.11 53.8514 230.095C53.8882 230.082 53.9099 230.049 53.9163 229.997C53.9162 229.856 53.9098 229.71 53.8971 229.557C53.8918 229.401 53.8902 229.244 53.8922 229.086C53.8968 228.935 53.9102 228.785 53.9321 228.637C53.9567 228.495 54.0049 228.362 54.0768 228.238C53.6323 228.387 53.1569 228.472 52.6508 228.493C52.152 228.512 51.651 228.478 51.1478 228.391C50.6546 228.309 50.1728 228.177 49.7025 227.995C49.2321 227.814 48.8032 227.597 48.4155 227.344L48.4869 227.195C48.7982 227.325 49.1471 227.421 49.5337 227.483C49.9203 227.545 50.3125 227.576 50.7104 227.576C51.1082 227.577 51.4993 227.546 51.8836 227.485C52.2706 227.431 52.6224 227.347 52.9391 227.235C53.1011 227.178 53.2469 227.11 53.3764 227.031C53.5133 226.949 53.6415 226.867 53.761 226.783C53.8832 226.707 53.9979 226.633 54.1054 226.562C54.2201 226.488 54.3401 226.429 54.4653 226.385C54.6716 226.312 54.857 226.321 55.0218 226.411C55.1865 226.502 55.3054 226.651 55.3784 226.857C55.4175 226.968 55.4143 227.064 55.3689 227.146C55.3308 227.226 55.2754 227.304 55.2026 227.379C55.1299 227.455 55.0561 227.539 54.9812 227.632C54.9063 227.724 54.8552 227.838 54.828 227.972C54.7965 228.14 54.8001 228.338 54.8389 228.565C54.8776 228.791 54.924 229.028 54.9779 229.274C55.0318 229.52 55.0858 229.766 55.1397 230.012C55.1936 230.258 55.2164 230.486 55.2079 230.696C55.2093 230.911 55.1683 231.1 55.0848 231.262C55.0086 231.422 54.8675 231.538 54.6612 231.611C54.5581 231.647 54.4511 231.673 54.3402 231.687C54.2392 231.706 54.138 231.713 54.0366 231.707C53.696 231.729 53.352 231.763 53.0044 231.812C52.6669 231.865 52.3398 231.947 52.0231 232.059C51.7506 232.156 51.5067 232.263 51.2914 232.38C51.0861 232.503 50.922 232.648 50.799 232.816C50.6761 232.984 50.603 233.175 50.5798 233.391C50.5565 233.606 50.5957 233.857 50.6974 234.144C50.8433 234.557 51.0704 234.883 51.3787 235.122C51.6944 235.358 52.0596 235.535 52.4745 235.654L52.4654 235.769Z" fill="black"/>
<path d="M57.3827 247.004C57.0287 246.94 56.675 246.829 56.3215 246.67C55.9713 246.519 55.6403 246.325 55.3287 246.088C55.0203 245.858 54.7395 245.594 54.4864 245.296C54.2365 245.006 54.0349 244.69 53.8816 244.348C53.6644 243.863 53.5258 243.381 53.4658 242.903C53.3986 242.428 53.423 241.976 53.5392 241.548C53.6554 241.119 53.8661 240.729 54.1712 240.378C54.4836 240.025 54.9 239.731 55.4205 239.498C55.9338 239.268 56.453 239.147 56.9781 239.134C57.5135 239.125 58.0187 239.212 58.4936 239.393C58.9788 239.578 59.4182 239.852 59.8119 240.215C60.2056 240.578 60.5174 241.016 60.7473 241.529C60.8559 241.772 60.9209 242.012 60.9422 242.251C60.9738 242.494 60.957 242.724 60.8918 242.941C60.8337 243.156 60.7276 243.349 60.5734 243.52C60.4224 243.699 60.2221 243.845 59.9726 243.956C59.6731 244.091 59.3822 244.148 59.0997 244.129C58.8173 244.11 58.5458 244.039 58.2852 243.916C58.0247 243.793 57.7799 243.629 57.5509 243.423C57.325 243.225 57.1142 243.002 56.9183 242.756C56.7257 242.517 56.5508 242.27 56.3938 242.015C56.2472 241.764 56.1243 241.528 56.0253 241.307L55.9104 241.051C55.3031 241.434 54.9225 241.912 54.7686 242.486C54.6148 243.06 54.704 243.718 55.0361 244.46C55.2724 244.987 55.595 245.459 56.0039 245.875C56.416 246.298 56.8771 246.64 57.3871 246.899L57.3827 247.004ZM56.2168 240.875L56.3366 241.142C56.4516 241.399 56.6089 241.645 56.8087 241.881C57.0156 242.113 57.2454 242.302 57.4981 242.445C57.7611 242.593 58.0421 242.685 58.3413 242.722C58.6405 242.76 58.9398 242.711 59.2392 242.577C59.5316 242.446 59.7452 242.273 59.8803 242.059C60.0185 241.851 60.0189 241.594 59.8816 241.288C59.7411 240.974 59.5251 240.75 59.2336 240.615C58.9524 240.484 58.6425 240.413 58.3037 240.402C57.9721 240.388 57.6386 240.418 57.3033 240.491C56.9783 240.568 56.6981 240.659 56.4628 240.765L56.2168 240.875Z" fill="black"/>
<path d="M68.8956 265.404C68.553 265.622 68.1903 265.765 67.8075 265.833C67.4247 265.901 67.0499 265.895 66.6831 265.813C66.3163 265.732 65.9705 265.582 65.6456 265.363C65.3248 265.151 65.0532 264.87 64.8306 264.521C64.6836 264.29 64.5749 264.04 64.5046 263.77C64.4343 263.499 64.4041 263.227 64.4141 262.952C64.4348 262.679 64.4966 262.413 64.5995 262.153C64.7023 261.892 64.8502 261.659 65.0429 261.453L65.2471 261.642C65.1455 261.948 65.0969 262.257 65.1013 262.569C65.11 262.888 65.2067 263.192 65.3915 263.482C65.5469 263.726 65.7424 263.916 65.978 264.053C66.2177 264.197 66.4695 264.287 66.7332 264.322C67.001 264.365 67.2722 264.354 67.5465 264.29C67.8317 264.229 68.0929 264.123 68.33 263.971C68.6133 263.791 68.822 263.602 68.956 263.406C69.0967 263.205 69.1876 262.999 69.2288 262.787C69.2807 262.578 69.3024 262.365 69.2939 262.148C69.2919 261.927 69.2878 261.702 69.2816 261.475C69.2797 261.254 69.293 261.027 69.3215 260.796C69.3543 260.571 69.4359 260.343 69.5663 260.112C69.1735 260.353 68.723 260.548 68.215 260.695C67.707 260.843 67.1828 260.937 66.6424 260.975C66.1061 261.021 65.5753 261.016 65.0497 260.962C64.5242 260.908 64.0442 260.802 63.6096 260.643L63.6976 260.476C64.0559 260.544 64.4535 260.55 64.8903 260.494C65.327 260.438 65.7614 260.342 66.1933 260.205C66.636 260.071 67.0598 259.908 67.4647 259.715C67.8738 259.528 68.2331 259.336 68.5427 259.138C68.7074 259.034 68.8583 258.914 68.9954 258.78C69.1326 258.647 69.2769 258.532 69.4284 258.435C69.6128 258.317 69.7881 258.28 69.9541 258.322C70.1243 258.371 70.264 258.481 70.3732 258.653C70.4572 258.784 70.4947 258.909 70.4858 259.025C70.4769 259.142 70.4441 259.265 70.3873 259.394C70.337 259.519 70.2703 259.654 70.1872 259.8C70.1106 259.941 70.0379 260.103 69.9691 260.286C69.9112 260.471 69.8679 260.679 69.8393 260.911C69.8215 261.144 69.8442 261.413 69.9074 261.715C69.9826 262.066 70.0329 262.413 70.0583 262.758C70.0945 263.106 70.0834 263.437 70.025 263.753C69.9707 264.074 69.8529 264.376 69.6716 264.659C69.4968 264.937 69.2382 265.185 68.8956 265.404Z" fill="black"/>
<path d="M79.6407 268.526C79.5156 268.62 79.3694 268.685 79.2022 268.722C79.035 268.76 78.8662 268.769 78.6959 268.75C78.5366 268.732 78.3812 268.688 78.2297 268.616C78.0782 268.544 77.9557 268.445 77.8621 268.32C77.7404 268.157 77.6953 267.986 77.7267 267.806C77.7629 267.633 77.8623 267.486 78.0249 267.364C78.15 267.27 78.2931 267.207 78.4541 267.175C78.6213 267.137 78.7846 267.127 78.9439 267.145C79.108 267.168 79.2603 267.215 79.4008 267.286C79.5523 267.358 79.6748 267.456 79.7684 267.582C79.8901 267.744 79.9383 267.913 79.9131 268.088C79.8879 268.263 79.7971 268.409 79.6407 268.526ZM75.3758 275.815C75.0304 275.849 74.6828 275.84 74.3329 275.79C73.9938 275.741 73.6604 275.654 73.3324 275.529C73.0153 275.405 72.7155 275.239 72.433 275.031C72.1551 274.829 71.9108 274.587 71.7002 274.306C71.4382 273.955 71.2636 273.598 71.1765 273.234C71.0941 272.876 71.086 272.526 71.152 272.184C71.229 271.843 71.3708 271.518 71.5774 271.207C71.7949 270.898 72.0726 270.617 72.4104 270.364C72.7732 270.093 73.1571 269.889 73.5619 269.752C73.9668 269.614 74.3801 269.535 74.8021 269.512C75.2302 269.484 75.6567 269.506 76.0817 269.579C76.5113 269.657 76.9275 269.77 77.3305 269.918L77.3303 270.094C76.7381 270.058 76.1443 270.112 75.5488 270.255C74.958 270.405 74.4186 270.662 73.9307 271.027C73.6492 271.238 73.4005 271.472 73.1846 271.732C72.9796 271.992 72.8285 272.266 72.7312 272.554C72.6387 272.847 72.6149 273.148 72.6599 273.456C72.7048 273.764 72.8443 274.074 73.0783 274.387C73.3544 274.756 73.6947 275.048 74.0991 275.262C74.5082 275.483 74.9323 275.639 75.3712 275.73L75.3758 275.815Z" fill="black"/>
<path d="M92.8107 294.75C92.5074 294.846 92.2041 294.925 91.9007 294.988C91.6028 295.056 91.3102 295.085 91.0229 295.076C90.7355 295.067 90.4562 295.011 90.1848 294.908C89.9135 294.804 89.6555 294.632 89.4108 294.391C89.1328 294.116 88.9624 293.811 88.8994 293.474C88.831 293.143 88.8343 292.795 88.9093 292.43C88.9953 292.065 89.1365 291.694 89.333 291.317C89.535 290.945 89.7563 290.582 89.9971 290.227C90.2379 289.872 90.4871 289.536 90.7447 289.219C91.0078 288.897 91.2435 288.609 91.4517 288.353C91.2638 288.332 90.9767 288.367 90.5906 288.458C90.21 288.543 89.7854 288.668 89.3169 288.831C88.8484 288.994 88.358 289.191 87.8457 289.421C87.339 289.656 86.8627 289.91 86.417 290.184C86.3235 290.245 86.2161 290.298 86.0949 290.343C85.9792 290.394 85.8606 290.425 85.7392 290.437C85.6178 290.46 85.499 290.458 85.3828 290.431C85.2611 290.41 85.1558 290.355 85.0669 290.267C84.9223 290.124 84.8661 289.97 84.8981 289.804C84.9358 289.644 85.0038 289.486 85.1022 289.331C85.638 288.465 86.1909 287.677 86.7608 286.966C87.3363 286.261 87.9424 285.586 88.5791 284.941C88.7328 284.785 88.8895 284.677 89.0493 284.615C89.2202 284.553 89.3857 284.53 89.5461 284.545C89.7118 284.555 89.8724 284.604 90.0276 284.691C90.1884 284.773 90.3354 284.88 90.4689 285.012C90.4856 285.028 90.5106 285.053 90.5439 285.086C90.5829 285.124 90.6135 285.165 90.6359 285.209C90.6638 285.248 90.6806 285.287 90.6864 285.325C90.6921 285.364 90.6785 285.394 90.6455 285.417C89.782 286.002 88.9798 286.676 88.2389 287.437C87.5035 288.194 86.8289 288.955 86.2152 289.721C86.5508 289.503 86.9498 289.277 87.4123 289.042C87.8859 288.807 88.3762 288.588 88.8831 288.386C89.4011 288.184 89.911 288.012 90.4128 287.871C90.9256 287.729 91.3891 287.644 91.8033 287.613C92.0021 287.601 92.1844 287.605 92.3503 287.626C92.5272 287.647 92.6879 287.729 92.8325 287.872C92.9159 287.954 92.9689 288.039 92.9916 288.128C93.0142 288.216 93.0176 288.302 93.0015 288.385C92.991 288.473 92.9612 288.559 92.912 288.642C92.8739 288.725 92.8302 288.803 92.781 288.875C92.6496 289.064 92.4716 289.299 92.2469 289.583C92.0222 289.866 91.7867 290.171 91.5402 290.499C91.2993 290.832 91.0639 291.176 90.8342 291.531C90.61 291.88 90.4271 292.221 90.2856 292.554C90.1496 292.88 90.0743 293.185 90.0595 293.467C90.0448 293.748 90.1291 293.98 90.3126 294.161C90.4627 294.309 90.6347 294.424 90.8286 294.506C91.0335 294.587 91.2438 294.647 91.4595 294.684C91.6807 294.716 91.9045 294.728 92.131 294.721C92.3629 294.709 92.581 294.688 92.7852 294.659L92.8107 294.75Z" fill="black"/>
<path d="M102.09 302.585C101.744 302.683 101.377 302.739 100.99 302.752C100.609 302.77 100.226 302.741 99.8422 302.665C99.4641 302.594 99.096 302.48 98.738 302.324C98.3859 302.173 98.0658 301.977 97.7777 301.737C97.3696 301.397 97.0335 301.025 96.7695 300.622C96.5005 300.225 96.3239 299.808 96.2399 299.372C96.1559 298.936 96.174 298.494 96.294 298.044C96.4191 297.589 96.6642 297.143 97.0293 296.705C97.3895 296.273 97.8026 295.935 98.2688 295.693C98.7459 295.45 99.2376 295.306 99.7437 295.26C100.261 295.213 100.776 295.266 101.289 295.419C101.802 295.572 102.275 295.829 102.707 296.189C102.911 296.359 103.075 296.547 103.199 296.752C103.334 296.956 103.42 297.17 103.457 297.394C103.499 297.612 103.489 297.832 103.426 298.054C103.369 298.281 103.253 298.5 103.077 298.71C102.867 298.962 102.631 299.141 102.369 299.248C102.107 299.355 101.832 299.411 101.544 299.415C101.256 299.419 100.964 299.379 100.668 299.295C100.378 299.216 100.091 299.109 99.8065 298.973C99.5284 298.843 99.2629 298.698 99.0098 298.538C98.7677 298.377 98.5537 298.219 98.3676 298.064L98.1516 297.884C97.7744 298.495 97.6429 299.092 97.7569 299.676C97.8708 300.259 98.2399 300.81 98.8641 301.331C99.3082 301.701 99.8053 301.983 100.355 302.177C100.912 302.376 101.476 302.48 102.048 302.489L102.09 302.585ZM98.3497 297.591L98.5747 297.779C98.7908 297.959 99.0403 298.111 99.3234 298.235C99.6115 298.353 99.9006 298.421 100.191 298.439C100.492 298.456 100.785 298.416 101.07 298.318C101.355 298.22 101.603 298.045 101.813 297.793C102.018 297.547 102.134 297.298 102.161 297.046C102.194 296.799 102.081 296.567 101.823 296.352C101.559 296.132 101.267 296.026 100.946 296.033C100.635 296.039 100.326 296.111 100.017 296.25C99.7126 296.383 99.426 296.556 99.157 296.769C98.8989 296.981 98.6873 297.186 98.5222 297.384L98.3497 297.591ZM102.167 294.457C102.533 294.396 102.89 294.328 103.238 294.252C103.586 294.176 103.931 294.086 104.271 293.983C104.616 293.874 104.959 293.743 105.3 293.59C105.641 293.437 105.99 293.25 106.347 293.029L106.854 294.764C106.057 294.964 105.277 295.051 104.515 295.026C103.764 295 102.979 294.88 102.161 294.666L102.167 294.457Z" fill="black"/>
<path d="M106.903 318.594C106.706 318.683 106.497 318.755 106.276 318.81C106.057 318.875 105.833 318.907 105.603 318.907C105.376 318.918 105.153 318.894 104.936 318.836C104.714 318.784 104.507 318.69 104.316 318.555C103.972 318.311 103.712 318.035 103.537 317.729C103.364 317.433 103.251 317.119 103.2 316.786C103.149 316.453 103.152 316.11 103.21 315.759C103.27 315.418 103.366 315.074 103.497 314.727C103.624 314.386 103.778 314.054 103.958 313.732C104.139 313.41 104.326 313.112 104.521 312.838C104.774 312.481 105.063 312.107 105.389 311.715C105.71 311.33 106.056 310.943 106.427 310.555C106.8 310.178 107.193 309.805 107.607 309.438C108.016 309.077 108.437 308.748 108.868 308.45C108.397 308.547 107.925 308.572 107.452 308.523C106.978 308.475 106.554 308.317 106.178 308.051C105.91 307.861 105.707 307.64 105.569 307.389C105.433 307.149 105.354 306.896 105.331 306.631C105.308 306.366 105.338 306.095 105.42 305.818C105.512 305.538 105.647 305.275 105.823 305.026C106.026 304.739 106.281 304.475 106.587 304.232C106.898 303.983 107.235 303.772 107.597 303.598C107.971 303.422 108.359 303.286 108.763 303.19C109.172 303.086 109.574 303.032 109.971 303.026C110.372 303.014 110.758 303.058 111.128 303.157C111.503 303.25 111.843 303.405 112.149 303.622C112.302 303.731 112.442 303.864 112.57 304.021C112.702 304.173 112.802 304.335 112.871 304.508C112.94 304.681 112.967 304.859 112.953 305.041C112.946 305.227 112.878 305.409 112.752 305.587C112.662 305.715 112.551 305.809 112.422 305.871C112.292 305.932 112.153 305.972 112.005 305.992C111.868 306.01 111.723 306.012 111.569 305.999C111.416 305.986 111.276 305.967 111.148 305.944L111.172 305.789C111.27 305.772 111.358 305.729 111.436 305.66C111.52 305.595 111.59 305.525 111.644 305.448C111.725 305.333 111.788 305.205 111.831 305.063C111.885 304.92 111.91 304.775 111.908 304.63C111.91 304.478 111.883 304.334 111.826 304.198C111.776 304.067 111.687 303.956 111.56 303.865C111.235 303.635 110.878 303.516 110.49 303.509C110.103 303.502 109.721 303.567 109.347 303.704C108.978 303.845 108.63 304.039 108.302 304.285C107.985 304.529 107.73 304.789 107.535 305.063C107.404 305.247 107.287 305.447 107.183 305.661C107.079 305.874 107.015 306.087 106.989 306.299C106.97 306.515 106.994 306.724 107.062 306.925C107.141 307.125 107.292 307.304 107.515 307.462C107.878 307.719 108.283 307.858 108.729 307.877C109.179 307.89 109.614 307.844 110.033 307.739C110.311 307.591 110.589 307.463 110.867 307.354C111.15 307.238 111.432 307.151 111.713 307.092L111.785 307.315C111.314 307.547 110.855 307.843 110.407 308.205C109.965 308.572 109.537 308.973 109.123 309.407C108.721 309.84 108.337 310.286 107.973 310.746C107.608 311.206 107.274 311.649 106.972 312.076C106.831 312.274 106.653 312.525 106.436 312.831C106.215 313.144 105.992 313.484 105.769 313.853C105.542 314.227 105.333 314.616 105.144 315.018C104.961 315.425 104.831 315.816 104.755 316.194C104.686 316.575 104.693 316.93 104.777 317.257C104.856 317.591 105.055 317.871 105.373 318.097C105.59 318.251 105.824 318.34 106.074 318.365C106.321 318.396 106.574 318.355 106.835 318.244L106.903 318.594Z" fill="black"/>
<path d="M124.225 317.187C123.972 317.355 123.684 317.49 123.362 317.59C123.04 317.69 122.706 317.756 122.361 317.789C122.019 317.814 121.684 317.798 121.356 317.74C121.027 317.682 120.731 317.576 120.469 317.421C120.105 317.207 119.868 316.917 119.757 316.552C119.648 316.198 119.628 315.832 119.696 315.455C119.279 315.563 118.861 315.611 118.441 315.6C118.026 315.581 117.626 315.459 117.242 315.233C116.899 315.031 116.629 314.789 116.431 314.51C116.244 314.227 116.126 313.926 116.078 313.608C116.03 313.289 116.043 312.961 116.115 312.623C116.194 312.288 116.329 311.96 116.52 311.637C116.734 311.273 116.993 310.95 117.296 310.666C117.603 310.376 117.939 310.129 118.303 309.927C118.672 309.718 119.06 309.552 119.467 309.43C119.875 309.307 120.285 309.227 120.697 309.189L120.765 309.351C120.244 309.589 119.755 309.903 119.297 310.295C118.843 310.681 118.467 311.126 118.17 311.63C118.043 311.846 117.931 312.088 117.836 312.358C117.74 312.628 117.684 312.899 117.669 313.172C117.654 313.444 117.692 313.702 117.783 313.947C117.886 314.188 118.071 314.388 118.341 314.547C118.569 314.682 118.81 314.774 119.062 314.823C119.318 314.865 119.584 314.877 119.858 314.857C119.893 314.769 119.928 314.685 119.965 314.607C120.006 314.522 120.05 314.44 120.098 314.359C120.288 314.036 120.542 313.714 120.858 313.392C121.175 313.071 121.519 312.771 121.892 312.492C122.269 312.207 122.655 311.953 123.048 311.732C123.453 311.508 123.83 311.336 124.182 311.217L124.249 311.379C123.789 311.806 123.346 312.265 122.919 312.758C122.493 313.25 122.121 313.765 121.804 314.304C121.661 314.546 121.535 314.789 121.427 315.034C121.33 315.276 121.275 315.516 121.262 315.753C121.26 315.987 121.314 316.21 121.426 316.421C121.541 316.625 121.744 316.812 122.033 316.983C122.356 317.174 122.707 317.271 123.085 317.277C123.466 317.275 123.834 317.22 124.189 317.111L124.225 317.187Z" fill="black"/>
<path d="M134.89 322.445C134.578 322.624 134.235 322.766 133.863 322.872C133.497 322.981 133.119 323.045 132.728 323.063C132.343 323.085 131.959 323.064 131.574 322.998C131.196 322.936 130.838 322.824 130.5 322.66C130.023 322.428 129.607 322.148 129.254 321.82C128.897 321.5 128.625 321.138 128.439 320.735C128.252 320.332 128.163 319.898 128.172 319.433C128.184 318.961 128.314 318.468 128.563 317.955C128.809 317.449 129.129 317.023 129.523 316.676C129.927 316.325 130.37 316.066 130.85 315.9C131.341 315.73 131.853 315.657 132.388 315.682C132.923 315.708 133.444 315.843 133.95 316.088C134.189 316.204 134.393 316.347 134.563 316.516C134.743 316.682 134.878 316.869 134.968 317.077C135.061 317.279 135.104 317.495 135.096 317.726C135.095 317.96 135.035 318.2 134.916 318.446C134.773 318.741 134.587 318.972 134.358 319.139C134.129 319.306 133.876 319.426 133.597 319.499C133.319 319.573 133.025 319.604 132.718 319.594C132.417 319.587 132.113 319.552 131.805 319.489C131.503 319.43 131.211 319.353 130.927 319.259C130.653 319.16 130.407 319.059 130.189 318.953L129.936 318.83C129.717 319.514 129.733 320.125 129.984 320.664C130.235 321.202 130.726 321.649 131.457 322.004C131.977 322.256 132.528 322.41 133.108 322.466C133.696 322.526 134.269 322.491 134.826 322.362L134.89 322.445ZM130.058 318.498L130.322 318.626C130.575 318.749 130.853 318.837 131.158 318.889C131.466 318.934 131.763 318.931 132.049 318.878C132.345 318.822 132.62 318.713 132.873 318.549C133.126 318.385 133.324 318.156 133.468 317.86C133.608 317.572 133.66 317.303 133.626 317.051C133.598 316.804 133.434 316.606 133.131 316.46C132.822 316.31 132.512 316.277 132.202 316.361C131.903 316.441 131.62 316.586 131.353 316.795C131.09 316.998 130.854 317.235 130.644 317.506C130.444 317.774 130.288 318.024 130.176 318.256L130.058 318.498Z" fill="black"/>
<path d="M145.83 324.958C145.63 325.467 145.361 325.907 145.022 326.277C144.684 326.648 144.299 326.933 143.868 327.134C143.437 327.334 142.971 327.441 142.471 327.454C141.978 327.47 141.473 327.377 140.957 327.175C140.498 326.995 140.118 326.745 139.816 326.425C139.518 326.115 139.295 325.763 139.147 325.37C139 324.976 138.932 324.559 138.945 324.12C138.961 323.673 139.056 323.227 139.23 322.784C139.376 322.413 139.565 322.08 139.798 321.785C140.038 321.494 140.309 321.243 140.609 321.034C140.912 320.817 141.242 320.64 141.598 320.503C141.957 320.358 142.328 320.248 142.71 320.171L142.802 320.321C142.357 320.557 141.963 320.856 141.62 321.216C141.277 321.577 141.012 321.997 140.823 322.477C140.686 322.826 140.597 323.203 140.557 323.606C140.526 324.005 140.554 324.394 140.64 324.772C140.727 325.15 140.886 325.494 141.117 325.803C141.349 326.112 141.661 326.343 142.053 326.497C142.301 326.594 142.553 326.635 142.811 326.618C143.07 326.602 143.313 326.538 143.541 326.426C143.777 326.317 143.985 326.172 144.165 325.991C144.355 325.806 144.498 325.593 144.592 325.353C144.683 325.12 144.735 324.881 144.748 324.634C144.771 324.383 144.758 324.138 144.708 323.901C144.662 323.656 144.581 323.423 144.467 323.202C144.355 322.973 144.217 322.768 144.053 322.586C143.96 322.483 143.864 322.395 143.767 322.323C143.676 322.254 143.576 322.177 143.467 322.092C143.419 322.065 143.369 322.032 143.316 321.995C143.267 321.95 143.221 321.907 143.178 321.865C143.139 321.816 143.109 321.763 143.09 321.705C143.071 321.647 143.074 321.585 143.1 321.52C143.151 321.389 143.245 321.287 143.383 321.215C143.52 321.143 143.67 321.093 143.832 321.065C143.997 321.029 144.161 321.017 144.324 321.031C144.489 321.037 144.627 321.061 144.736 321.104C145.107 321.25 145.397 321.473 145.606 321.773C145.816 322.073 145.958 322.406 146.033 322.771C146.108 323.136 146.124 323.512 146.082 323.898C146.039 324.284 145.955 324.638 145.83 324.958Z" fill="black"/>
<path d="M167.893 332.232C167.803 332.628 167.646 332.984 167.421 333.302C167.196 333.619 166.925 333.878 166.607 334.078C166.289 334.277 165.937 334.414 165.552 334.486C165.174 334.56 164.784 334.551 164.38 334.459C164.114 334.398 163.86 334.296 163.621 334.153C163.381 334.011 163.168 333.838 162.982 333.635C162.805 333.426 162.662 333.193 162.552 332.936C162.443 332.679 162.384 332.409 162.376 332.127L162.655 332.118C162.797 332.407 162.979 332.661 163.202 332.88C163.432 333.101 163.715 333.249 164.05 333.326C164.332 333.39 164.604 333.388 164.868 333.32C165.14 333.254 165.382 333.141 165.595 332.981C165.815 332.823 166.001 332.625 166.151 332.387C166.311 332.143 166.422 331.884 166.485 331.61C166.559 331.282 166.575 331.001 166.533 330.767C166.492 330.526 166.412 330.315 166.292 330.135C166.182 329.95 166.048 329.783 165.89 329.635C165.733 329.479 165.572 329.322 165.408 329.164C165.251 329.008 165.102 328.838 164.96 328.653C164.825 328.47 164.723 328.251 164.653 327.995C164.543 328.442 164.359 328.897 164.101 329.359C163.844 329.821 163.536 330.256 163.179 330.663C162.829 331.072 162.448 331.442 162.036 331.773C161.624 332.103 161.208 332.365 160.787 332.557L160.732 332.377C161.035 332.173 161.322 331.898 161.594 331.552C161.865 331.205 162.107 330.831 162.318 330.431C162.539 330.024 162.726 329.61 162.878 329.188C163.038 328.768 163.159 328.379 163.241 328.021C163.284 327.83 163.308 327.639 163.311 327.448C163.315 327.256 163.337 327.073 163.377 326.898C163.426 326.685 163.524 326.535 163.672 326.448C163.827 326.364 164.004 326.344 164.202 326.389C164.355 326.424 164.469 326.486 164.544 326.575C164.62 326.665 164.683 326.775 164.733 326.907C164.785 327.031 164.832 327.174 164.876 327.336C164.92 327.491 164.983 327.657 165.062 327.835C165.151 328.008 165.266 328.187 165.409 328.371C165.56 328.55 165.765 328.725 166.022 328.896C166.322 329.092 166.602 329.305 166.863 329.532C167.132 329.754 167.357 329.998 167.537 330.263C167.725 330.53 167.853 330.828 167.922 331.156C167.993 331.477 167.984 331.836 167.893 332.232Z" fill="black"/>
<path d="M183.143 335.53C182.973 335.783 182.759 336.017 182.499 336.233C182.24 336.448 181.957 336.637 181.65 336.799C181.344 336.953 181.029 337.066 180.703 337.139C180.377 337.211 180.063 337.226 179.762 337.183C179.344 337.124 179.014 336.948 178.771 336.653C178.535 336.367 178.377 336.037 178.296 335.663C177.951 335.922 177.583 336.126 177.191 336.276C176.8 336.418 176.384 336.458 175.943 336.396C175.549 336.34 175.207 336.221 174.917 336.038C174.636 335.849 174.412 335.616 174.246 335.34C174.08 335.064 173.966 334.756 173.903 334.416C173.849 334.077 173.847 333.721 173.9 333.35C173.959 332.932 174.074 332.534 174.246 332.156C174.419 331.77 174.635 331.414 174.894 331.088C175.154 330.754 175.449 330.452 175.779 330.183C176.109 329.914 176.457 329.683 176.823 329.49L176.948 329.614C176.558 330.033 176.226 330.511 175.953 331.048C175.681 331.578 175.504 332.133 175.422 332.713C175.387 332.96 175.377 333.227 175.392 333.513C175.407 333.799 175.459 334.071 175.549 334.328C175.639 334.586 175.773 334.81 175.951 335.001C176.138 335.185 176.386 335.299 176.696 335.342C176.959 335.38 177.216 335.372 177.468 335.321C177.721 335.262 177.97 335.171 178.217 335.048C178.214 334.953 178.215 334.863 178.219 334.776C178.225 334.682 178.234 334.589 178.247 334.496C178.3 334.125 178.411 333.73 178.58 333.312C178.749 332.894 178.953 332.485 179.191 332.085C179.43 331.677 179.689 331.295 179.968 330.94C180.256 330.578 180.539 330.275 180.818 330.03L180.943 330.155C180.681 330.725 180.447 331.319 180.242 331.937C180.036 332.555 179.89 333.174 179.802 333.793C179.763 334.071 179.74 334.344 179.734 334.611C179.737 334.872 179.777 335.115 179.856 335.339C179.944 335.556 180.079 335.741 180.263 335.893C180.448 336.038 180.707 336.133 181.039 336.18C181.411 336.233 181.772 336.189 182.123 336.049C182.475 335.902 182.794 335.71 183.08 335.474L183.143 335.53ZM177.843 328.64C178.122 328.395 178.389 328.149 178.645 327.901C178.901 327.653 179.147 327.396 179.382 327.129C179.618 326.855 179.84 326.563 180.05 326.253C180.259 325.943 180.457 325.601 180.645 325.225L181.989 326.432C181.417 327.022 180.8 327.507 180.139 327.887C179.486 328.261 178.756 328.572 177.948 328.821L177.843 328.64Z" fill="black"/>
<path d="M195.172 333.816C195.148 334.252 195.038 334.704 194.842 335.171C194.653 335.631 194.4 336.047 194.083 336.422C193.766 336.796 193.394 337.101 192.967 337.337C192.548 337.565 192.096 337.666 191.613 337.64C191.441 337.631 191.267 337.595 191.09 337.531C190.922 337.459 190.767 337.365 190.624 337.248C190.49 337.123 190.38 336.98 190.295 336.819C190.217 336.659 190.184 336.481 190.194 336.286C190.199 336.192 190.242 336.116 190.323 336.058C190.405 335.992 190.493 335.962 190.587 335.967C190.704 335.973 190.798 336.036 190.87 336.158C190.949 336.279 191.032 336.413 191.118 336.558C191.213 336.696 191.323 336.827 191.45 336.951C191.584 337.076 191.764 337.144 191.99 337.156C192.271 337.171 192.526 337.09 192.754 336.915C192.983 336.731 193.179 336.507 193.341 336.242C193.504 335.976 193.633 335.694 193.727 335.394C193.821 335.086 193.875 334.815 193.887 334.581C193.903 334.284 193.879 333.99 193.817 333.697C193.754 333.404 193.646 333.144 193.494 332.917C193.35 332.682 193.157 332.492 192.914 332.346C192.68 332.193 192.399 332.108 192.071 332.09C191.689 332.07 191.358 332.182 191.079 332.425C190.808 332.669 190.576 332.989 190.383 333.386C190.198 333.775 190.046 334.217 189.925 334.711C189.813 335.206 189.721 335.698 189.648 336.187C189.583 336.668 189.536 337.116 189.506 337.529C189.476 337.942 189.455 338.269 189.442 338.511C189.382 339.642 189.297 340.659 189.187 341.56C189.076 342.47 188.947 343.288 188.798 344.016C188.65 344.743 188.487 345.384 188.309 345.938C188.131 346.5 187.944 346.998 187.749 347.434L187.456 347.418L187.753 341.825C187.843 340.116 187.902 338.418 187.929 336.729C187.956 335.033 188.016 333.327 188.107 331.61C188.116 331.431 188.159 331.285 188.236 331.171C188.32 331.051 188.423 330.954 188.544 330.882C188.673 330.811 188.816 330.764 188.974 330.741C189.132 330.718 189.293 330.711 189.456 330.72C189.503 330.722 189.581 330.738 189.689 330.767C189.797 330.789 189.849 330.834 189.846 330.905C189.817 331.451 189.784 331.989 189.748 332.519C189.712 333.049 189.672 333.583 189.628 334.12C189.757 333.752 189.918 333.373 190.111 332.984C190.304 332.587 190.534 332.232 190.801 331.918C191.068 331.603 191.379 331.35 191.733 331.157C192.088 330.965 192.495 330.881 192.955 330.905C193.346 330.926 193.681 331.022 193.961 331.193C194.249 331.365 194.484 331.585 194.666 331.852C194.855 332.121 194.991 332.425 195.075 332.766C195.158 333.107 195.191 333.457 195.172 333.816Z" fill="black"/>
<path d="M208.8 336.125C208.606 336.428 208.367 336.712 208.086 336.978C207.812 337.243 207.506 337.475 207.167 337.672C206.837 337.869 206.486 338.027 206.114 338.147C205.75 338.267 205.38 338.332 205.006 338.342C204.475 338.357 203.977 338.301 203.512 338.173C203.047 338.053 202.639 337.857 202.288 337.586C201.936 337.314 201.657 336.971 201.45 336.554C201.243 336.13 201.131 335.633 201.115 335.063C201.099 334.501 201.186 333.975 201.376 333.485C201.573 332.987 201.846 332.553 202.195 332.184C202.552 331.807 202.973 331.506 203.459 331.281C203.945 331.056 204.47 330.936 205.032 330.92C205.297 330.913 205.544 330.945 205.773 331.017C206.009 331.081 206.215 331.184 206.391 331.328C206.567 331.464 206.705 331.636 206.805 331.844C206.912 332.052 206.97 332.292 206.977 332.566C206.986 332.894 206.928 333.185 206.802 333.438C206.677 333.692 206.507 333.915 206.294 334.109C206.08 334.303 205.835 334.466 205.557 334.599C205.287 334.731 205.001 334.841 204.699 334.928C204.404 335.014 204.109 335.081 203.813 335.128C203.525 335.168 203.26 335.191 203.018 335.197L202.737 335.205C202.858 335.913 203.155 336.448 203.626 336.81C204.097 337.172 204.739 337.341 205.551 337.319C206.129 337.302 206.689 337.185 207.23 336.967C207.778 336.748 208.27 336.453 208.705 336.081L208.8 336.125ZM202.692 334.855L202.985 334.847C203.266 334.839 203.554 334.788 203.848 334.693C204.142 334.591 204.404 334.451 204.633 334.273C204.871 334.086 205.064 333.862 205.213 333.6C205.361 333.338 205.431 333.043 205.422 332.715C205.413 332.395 205.335 332.131 205.189 331.924C205.05 331.717 204.813 331.618 204.477 331.628C204.134 331.637 203.844 331.751 203.608 331.969C203.379 332.178 203.195 332.437 203.055 332.746C202.915 333.047 202.814 333.366 202.754 333.704C202.7 334.034 202.677 334.328 202.684 334.585L202.692 334.855Z" fill="black"/>
<path d="M222.092 334.82C221.987 335.146 221.839 335.445 221.648 335.718C221.466 335.989 221.26 336.228 221.031 336.434C220.801 336.632 220.56 336.792 220.306 336.914C220.053 337.044 219.806 337.122 219.565 337.148C219.115 337.198 218.726 337.162 218.398 337.04C218.07 336.919 217.795 336.737 217.572 336.494C217.349 336.251 217.175 335.956 217.051 335.608C216.926 335.26 216.842 334.884 216.797 334.481C216.763 334.17 216.751 333.845 216.761 333.506C216.772 333.167 216.802 332.837 216.854 332.517C216.864 332.469 216.874 332.413 216.882 332.349C216.89 332.278 216.892 332.219 216.887 332.172C216.882 332.133 216.856 332.105 216.806 332.086C216.669 332.054 216.525 332.027 216.373 332.004C216.22 331.974 216.067 331.939 215.914 331.901C215.768 331.862 215.625 331.815 215.486 331.759C215.354 331.703 215.235 331.626 215.13 331.527C215.173 331.994 215.148 332.476 215.053 332.974C214.957 333.464 214.809 333.944 214.609 334.414C214.416 334.875 214.177 335.314 213.893 335.73C213.608 336.146 213.299 336.514 212.964 336.834L212.835 336.73C213.033 336.457 213.207 336.139 213.356 335.777C213.505 335.415 213.625 335.04 213.716 334.653C213.807 334.266 213.867 333.878 213.895 333.49C213.931 333.101 213.931 332.739 213.894 332.405C213.875 332.234 213.843 332.077 213.795 331.933C213.747 331.781 213.696 331.637 213.642 331.502C213.596 331.365 213.55 331.237 213.505 331.116C213.46 330.987 213.43 330.857 213.415 330.725C213.392 330.507 213.443 330.329 213.569 330.189C213.695 330.05 213.867 329.968 214.084 329.944C214.201 329.931 214.294 329.957 214.364 330.02C214.433 330.075 214.496 330.147 214.553 330.235C214.609 330.323 214.674 330.414 214.747 330.508C214.821 330.602 214.919 330.678 215.043 330.735C215.2 330.804 215.394 330.846 215.623 330.86C215.852 330.874 216.093 330.883 216.345 330.887C216.597 330.891 216.849 330.895 217.101 330.899C217.353 330.903 217.58 330.933 217.783 330.989C217.992 331.037 218.166 331.12 218.305 331.239C218.443 331.349 218.524 331.513 218.548 331.731C218.56 331.839 218.56 331.949 218.548 332.061C218.544 332.163 218.527 332.263 218.499 332.361C218.441 332.697 218.396 333.04 218.364 333.39C218.338 333.73 218.344 334.068 218.38 334.402C218.412 334.689 218.46 334.951 218.525 335.187C218.597 335.415 218.701 335.608 218.836 335.766C218.971 335.924 219.141 336.039 219.346 336.111C219.55 336.183 219.804 336.203 220.106 336.17C220.541 336.122 220.91 335.975 221.214 335.73C221.516 335.477 221.772 335.162 221.983 334.785L222.092 334.82Z" fill="black"/>
<path d="M233.102 330.984C233.207 331.521 233.216 332.036 233.13 332.531C233.043 333.025 232.872 333.473 232.616 333.873C232.36 334.274 232.025 334.614 231.61 334.894C231.203 335.173 230.727 335.365 230.182 335.472C229.699 335.566 229.244 335.56 228.817 335.452C228.399 335.351 228.023 335.174 227.687 334.921C227.351 334.668 227.07 334.353 226.845 333.975C226.618 333.59 226.459 333.163 226.368 332.695C226.291 332.304 226.272 331.922 226.31 331.548C226.356 331.173 226.45 330.817 226.591 330.479C226.73 330.133 226.913 329.807 227.139 329.5C227.364 329.185 227.618 328.892 227.899 328.622L228.058 328.699C227.809 329.138 227.637 329.601 227.541 330.09C227.446 330.578 227.448 331.075 227.547 331.581C227.619 331.949 227.746 332.314 227.928 332.677C228.117 333.03 228.349 333.343 228.625 333.615C228.901 333.887 229.22 334.092 229.581 334.228C229.942 334.364 230.329 334.392 230.743 334.311C231.004 334.26 231.239 334.159 231.448 334.006C231.657 333.854 231.828 333.669 231.961 333.452C232.101 333.234 232.198 333 232.253 332.75C232.314 332.491 232.32 332.236 232.27 331.983C232.222 331.737 232.137 331.507 232.016 331.292C231.9 331.068 231.758 330.869 231.588 330.695C231.418 330.513 231.224 330.36 231.009 330.235C230.792 330.103 230.566 330.004 230.33 329.938C230.195 329.901 230.067 329.878 229.946 329.87C229.833 329.86 229.707 329.849 229.57 329.836C229.514 329.839 229.455 329.839 229.39 329.835C229.324 329.824 229.262 329.813 229.204 329.8C229.145 329.78 229.091 329.751 229.044 329.712C228.996 329.674 228.966 329.62 228.953 329.551C228.926 329.413 228.951 329.277 229.028 329.142C229.105 329.008 229.204 328.885 229.326 328.773C229.446 328.654 229.578 328.557 229.722 328.481C229.865 328.397 229.994 328.344 230.109 328.322C230.5 328.245 230.865 328.277 231.203 328.418C231.541 328.559 231.839 328.763 232.099 329.031C232.358 329.299 232.574 329.607 232.745 329.955C232.917 330.304 233.036 330.647 233.102 330.984Z" fill="black"/>
<path d="M245.416 328.745C245.526 329.136 245.559 329.525 245.513 329.911C245.467 330.297 245.353 330.654 245.169 330.982C244.985 331.309 244.742 331.597 244.438 331.845C244.142 332.09 243.794 332.269 243.396 332.381C243.133 332.455 242.861 332.487 242.583 332.476C242.304 332.465 242.034 332.415 241.773 332.326C241.518 332.228 241.281 332.091 241.062 331.918C240.843 331.744 240.662 331.535 240.521 331.291L240.761 331.15C241.024 331.336 241.306 331.472 241.606 331.558C241.914 331.642 242.233 331.637 242.564 331.544C242.842 331.466 243.081 331.334 243.28 331.148C243.487 330.96 243.646 330.745 243.756 330.503C243.874 330.258 243.942 329.996 243.961 329.715C243.984 329.424 243.958 329.143 243.882 328.873C243.791 328.549 243.671 328.295 243.521 328.11C243.37 327.917 243.199 327.77 243.008 327.67C242.823 327.56 242.625 327.477 242.415 327.423C242.203 327.361 241.987 327.3 241.767 327.24C241.555 327.178 241.342 327.099 241.129 327.005C240.923 326.909 240.729 326.765 240.545 326.573C240.662 327.019 240.718 327.506 240.713 328.035C240.707 328.564 240.645 329.093 240.526 329.622C240.414 330.148 240.256 330.655 240.053 331.143C239.849 331.63 239.608 332.059 239.331 332.429L239.196 332.296C239.365 331.973 239.486 331.594 239.558 331.16C239.631 330.726 239.665 330.282 239.659 329.829C239.659 329.367 239.625 328.914 239.557 328.47C239.496 328.024 239.416 327.625 239.317 327.271C239.264 327.083 239.193 326.904 239.105 326.735C239.017 326.565 238.948 326.393 238.899 326.22C238.84 326.01 238.855 325.831 238.944 325.684C239.04 325.536 239.186 325.434 239.381 325.379C239.531 325.336 239.661 325.336 239.771 325.379C239.88 325.421 239.988 325.488 240.095 325.58C240.2 325.664 240.31 325.767 240.425 325.888C240.539 326.003 240.673 326.119 240.828 326.238C240.988 326.347 241.175 326.448 241.388 326.543C241.607 326.627 241.87 326.683 242.178 326.71C242.535 326.74 242.883 326.792 243.221 326.867C243.564 326.933 243.878 327.04 244.162 327.187C244.455 327.332 244.71 327.532 244.928 327.787C245.144 328.035 245.306 328.354 245.416 328.745Z" fill="black"/>
<path d="M267.709 308.906C267.786 309.068 267.85 309.276 267.9 309.529C267.948 309.774 267.965 310.03 267.952 310.295C267.943 310.55 267.893 310.79 267.801 311.015C267.705 311.233 267.551 311.393 267.34 311.493C267.227 311.546 267.134 311.543 267.062 311.482C266.997 311.418 266.943 311.339 266.899 311.248C266.759 310.951 266.645 310.646 266.557 310.334C266.469 310.021 266.352 309.709 266.205 309.398C266.061 309.095 265.896 308.81 265.709 308.544C265.519 308.271 265.304 308.053 265.062 307.891C264.828 307.725 264.559 307.632 264.256 307.611C263.956 307.581 263.622 307.652 263.255 307.826C262.726 308.077 262.294 308.433 261.959 308.894C261.631 309.352 261.381 309.881 261.207 310.482C261.041 311.08 260.939 311.733 260.903 312.441C260.871 313.14 260.887 313.858 260.952 314.597C261.017 315.336 261.12 316.073 261.261 316.81C261.41 317.544 261.574 318.245 261.752 318.912C261.937 319.577 262.132 320.189 262.336 320.749C262.538 321.302 262.729 321.769 262.909 322.15C263.07 322.489 263.255 322.842 263.464 323.21C263.68 323.575 263.915 323.926 264.17 324.263C264.429 324.59 264.705 324.891 265 325.167C265.295 325.442 265.605 325.658 265.93 325.816C266.258 325.98 266.599 326.069 266.951 326.084C267.315 326.102 267.687 326.021 268.068 325.84C268.626 325.576 269.068 325.232 269.395 324.809C269.722 324.386 269.964 323.913 270.122 323.388C270.287 322.861 270.376 322.3 270.389 321.706C270.412 321.116 270.395 320.523 270.337 319.928C270.185 319.698 270.04 319.464 269.901 319.227C269.76 318.983 269.63 318.737 269.513 318.49C269.433 318.32 269.342 318.109 269.239 317.855C269.132 317.594 269.03 317.314 268.931 317.015C268.83 316.709 268.742 316.396 268.668 316.076C268.591 315.75 268.537 315.434 268.505 315.129C268.47 314.818 268.469 314.533 268.502 314.275C268.532 314.01 268.607 313.784 268.726 313.598C268.809 313.481 268.895 313.371 268.985 313.268C269.078 313.155 269.192 313.066 269.326 313.003C269.425 312.956 269.512 312.94 269.589 312.956C269.672 312.968 269.738 313.024 269.785 313.123C269.815 313.186 269.834 313.255 269.843 313.328C269.856 313.391 269.863 313.462 269.865 313.538C269.925 314.34 270.064 315.126 270.281 315.896C270.499 316.666 270.78 317.414 271.125 318.141C271.245 318.396 271.405 318.696 271.604 319.043C271.81 319.386 272.036 319.746 272.283 320.121C272.53 320.497 272.797 320.877 273.082 321.26C273.367 321.643 273.653 322.001 273.94 322.332C274.234 322.66 274.517 322.949 274.792 323.199C275.073 323.446 275.335 323.625 275.577 323.735L275.417 323.889C274.498 323.555 273.639 323.093 272.841 322.502C272.053 321.916 271.356 321.239 270.75 320.471C270.79 321.412 270.727 322.32 270.562 323.193C270.48 323.569 270.362 323.932 270.208 324.281C270.057 324.638 269.874 324.971 269.658 325.281C269.441 325.591 269.189 325.871 268.901 326.12C268.619 326.365 268.299 326.573 267.939 326.744C267.416 326.992 266.91 327.119 266.421 327.126C265.939 327.13 265.481 327.048 265.047 326.882C264.614 326.715 264.205 326.481 263.82 326.18C263.442 325.875 263.096 325.537 262.783 325.167C262.466 324.79 262.18 324.398 261.927 323.99C261.673 323.583 261.46 323.196 261.286 322.829C260.898 322.01 260.562 321.11 260.279 320.129C260.003 319.144 259.799 318.139 259.667 317.112C259.531 316.078 259.483 315.055 259.522 314.042C259.565 313.019 259.714 312.067 259.971 311.185C260.227 310.302 260.604 309.519 261.1 308.834C261.597 308.149 262.234 307.623 263.011 307.255C263.484 307.031 263.951 306.904 264.413 306.876C264.879 306.837 265.32 306.891 265.736 307.04C266.149 307.181 266.525 307.41 266.864 307.724C267.203 308.039 267.485 308.433 267.709 308.906Z" fill="black"/>
<path d="M284.814 311.593C284.812 311.986 284.739 312.38 284.593 312.776C284.451 313.162 284.26 313.536 284.021 313.897C283.785 314.248 283.51 314.572 283.196 314.869C282.893 315.168 282.577 315.416 282.248 315.613C281.846 315.854 281.434 316.018 281.013 316.106C280.599 316.189 280.193 316.196 279.796 316.124C279.4 316.042 279.033 315.884 278.693 315.65C278.356 315.406 278.063 315.076 277.814 314.66C277.533 314.191 277.342 313.681 277.241 313.132C277.147 312.578 277.146 312.037 277.24 311.508C277.339 310.975 277.535 310.48 277.826 310.024C278.121 309.556 278.512 309.177 279.002 308.884C279.163 308.788 279.334 308.708 279.515 308.645C279.696 308.583 279.877 308.551 280.059 308.552C280.238 308.545 280.405 308.582 280.562 308.661C280.725 308.736 280.865 308.871 280.981 309.065C281.097 309.26 281.149 309.461 281.137 309.669C281.121 309.869 281.063 310.063 280.965 310.249C280.867 310.435 280.746 310.613 280.601 310.781C280.459 310.939 280.315 311.08 280.17 311.203L280.086 311.062C280.164 310.979 280.242 310.882 280.322 310.771C280.407 310.656 280.475 310.533 280.525 310.403C280.575 310.273 280.6 310.14 280.6 310.003C280.607 309.863 280.574 309.732 280.502 309.611C280.446 309.518 280.376 309.454 280.293 309.422C280.213 309.379 280.127 309.358 280.036 309.358C279.952 309.353 279.863 309.365 279.771 309.393C279.678 309.421 279.592 309.459 279.511 309.507C279.169 309.712 278.907 309.974 278.724 310.292C278.544 310.6 278.435 310.934 278.395 311.295C278.356 311.655 278.378 312.019 278.462 312.388C278.553 312.753 278.692 313.092 278.881 313.408C279.097 313.77 279.346 314.063 279.625 314.287C279.908 314.5 280.21 314.647 280.531 314.728C280.852 314.809 281.189 314.817 281.542 314.752C281.894 314.687 282.248 314.548 282.604 314.335C282.832 314.199 283.059 314.031 283.286 313.832C283.515 313.622 283.722 313.398 283.908 313.159C284.1 312.917 284.266 312.663 284.407 312.396C284.548 312.13 284.649 311.865 284.71 311.601L284.814 311.593Z" fill="black"/>
<path d="M296.693 303.222C296.749 303.528 296.78 303.852 296.785 304.195C296.793 304.526 296.767 304.852 296.709 305.173C296.647 305.488 296.542 305.784 296.396 306.062C296.25 306.341 296.046 306.573 295.786 306.76C295.501 306.965 295.199 307.067 294.88 307.065C294.566 307.07 294.249 307.004 293.93 306.868C293.606 306.725 293.283 306.529 292.959 306.281C292.636 306.032 292.322 305.762 292.017 305.471C291.712 305.181 291.416 304.883 291.13 304.579C290.851 304.27 290.592 303.99 290.353 303.738C290.341 304.15 290.36 304.565 290.41 304.982C290.459 305.398 290.524 305.823 290.604 306.256C290.68 306.683 290.763 307.113 290.854 307.548C290.945 307.983 291.025 308.421 291.092 308.863C291.104 308.961 291.121 309.064 291.142 309.174C291.159 309.277 291.165 309.379 291.16 309.479C291.159 309.585 291.14 309.686 291.102 309.78C291.064 309.875 290.997 309.956 290.902 310.025C290.814 310.089 290.726 310.127 290.64 310.141C290.56 310.151 290.479 310.146 290.399 310.127C290.329 310.11 290.26 310.082 290.194 310.043C290.134 310 290.079 309.957 290.03 309.915C289.758 309.697 289.442 309.405 289.082 309.038C288.729 308.667 288.361 308.262 287.979 307.825C287.598 307.387 287.221 306.937 286.849 306.473C286.479 305.998 286.145 305.554 285.849 305.142C285.425 304.552 285.028 303.919 284.657 303.242C284.282 302.559 283.959 301.863 283.689 301.153C283.426 300.438 283.228 299.728 283.097 299.024C282.968 298.308 282.931 297.628 282.986 296.982C283.042 296.336 283.204 295.738 283.473 295.189C283.748 294.635 284.159 294.162 284.705 293.77C285.066 293.51 285.429 293.413 285.794 293.478C286.153 293.537 286.475 293.763 286.757 294.157C287.181 294.747 287.485 295.39 287.667 296.086C287.852 296.771 287.96 297.477 287.992 298.204C288.031 298.927 288.013 299.652 287.939 300.379C287.866 301.095 287.784 301.77 287.691 302.404L287.499 302.398C287.53 302.106 287.541 301.766 287.532 301.378C287.524 300.98 287.496 300.567 287.449 300.139C287.403 299.701 287.339 299.256 287.256 298.806C287.168 298.349 287.066 297.913 286.949 297.496C286.833 297.08 286.7 296.694 286.551 296.34C286.397 295.979 286.229 295.671 286.047 295.417C285.951 295.284 285.847 295.166 285.735 295.064C285.623 294.962 285.504 294.889 285.377 294.846C285.245 294.796 285.11 294.783 284.972 294.805C284.836 294.816 284.698 294.872 284.558 294.972C284.279 295.173 284.093 295.47 284.001 295.863C283.915 296.252 283.902 296.704 283.964 297.218C284.021 297.725 284.143 298.277 284.331 298.873C284.525 299.465 284.755 300.065 285.019 300.673C285.289 301.277 285.59 301.87 285.92 302.45C286.251 303.03 286.592 303.564 286.943 304.053C287.18 304.383 287.419 304.716 287.661 305.052C287.902 305.388 288.162 305.736 288.439 306.095C288.722 306.449 289.031 306.819 289.366 307.204C289.706 307.584 290.088 307.988 290.511 308.416C290.27 307.492 290.057 306.572 289.871 305.657C289.68 304.736 289.558 303.857 289.505 303.02C289.496 302.901 289.488 302.782 289.479 302.663C289.477 302.539 289.485 302.423 289.503 302.314C289.516 302.199 289.545 302.091 289.589 301.992C289.633 301.893 289.7 301.812 289.789 301.748C289.896 301.67 290.005 301.641 290.114 301.658C290.218 301.67 290.322 301.706 290.423 301.768C290.525 301.829 290.619 301.906 290.705 301.999C290.797 302.087 290.879 302.167 290.951 302.24C291.108 302.406 291.308 302.624 291.549 302.893C291.791 303.162 292.054 303.448 292.34 303.753C292.622 304.051 292.915 304.345 293.22 304.636C293.532 304.922 293.836 305.165 294.134 305.364C294.433 305.553 294.717 305.681 294.986 305.748C295.255 305.814 295.491 305.774 295.694 305.628C295.859 305.51 295.999 305.356 296.114 305.168C296.229 304.98 296.324 304.777 296.398 304.56C296.473 304.342 296.524 304.118 296.55 303.888C296.583 303.652 296.596 303.436 296.589 303.239L296.693 303.222Z" fill="black"/>
<path d="M306.002 295.429C306.041 295.786 306.034 296.157 305.982 296.541C305.935 296.92 305.842 297.292 305.703 297.658C305.569 298.019 305.396 298.362 305.182 298.689C304.974 299.011 304.727 299.294 304.442 299.537C304.038 299.882 303.615 300.151 303.174 300.344C302.737 300.542 302.297 300.646 301.853 300.656C301.409 300.666 300.975 300.574 300.553 300.38C300.125 300.18 299.726 299.863 299.355 299.43C298.99 299.002 298.727 298.538 298.567 298.038C298.407 297.527 298.347 297.018 298.387 296.511C298.427 295.994 298.566 295.495 298.803 295.015C299.04 294.535 299.373 294.112 299.8 293.746C300.002 293.574 300.215 293.443 300.438 293.356C300.661 293.257 300.887 293.208 301.114 293.209C301.336 293.204 301.551 293.252 301.76 293.351C301.974 293.445 302.17 293.596 302.347 293.804C302.561 294.054 302.698 294.317 302.759 294.593C302.821 294.869 302.829 295.15 302.785 295.434C302.741 295.719 302.652 296 302.519 296.278C302.393 296.551 302.239 296.816 302.058 297.073C301.883 297.325 301.696 297.563 301.495 297.785C301.296 297.997 301.104 298.182 300.92 298.339L300.706 298.522C301.246 298.996 301.812 299.226 302.406 299.212C303 299.197 303.606 298.926 304.224 298.398C304.663 298.022 305.025 297.58 305.308 297.07C305.598 296.555 305.795 296.016 305.9 295.454L306.002 295.429ZM300.451 298.277L300.674 298.087C300.888 297.904 301.08 297.684 301.249 297.425C301.414 297.161 301.53 296.888 301.596 296.605C301.664 296.311 301.673 296.015 301.624 295.718C301.575 295.42 301.444 295.147 301.231 294.897C301.023 294.654 300.797 294.498 300.553 294.429C300.315 294.355 300.068 294.427 299.813 294.645C299.552 294.868 299.398 295.139 299.351 295.456C299.304 295.763 299.324 296.081 299.409 296.409C299.489 296.731 299.611 297.042 299.776 297.343C299.942 297.633 300.109 297.876 300.276 298.072L300.451 298.277Z" fill="black"/>
<path d="M315.525 286.063C315.647 286.383 315.72 286.709 315.743 287.04C315.772 287.366 315.761 287.681 315.713 287.985C315.658 288.284 315.571 288.56 315.45 288.814C315.335 289.074 315.192 289.29 315.021 289.462C314.701 289.783 314.376 290 314.045 290.111C313.714 290.223 313.385 290.254 313.059 290.205C312.733 290.156 312.412 290.036 312.097 289.843C311.781 289.651 311.48 289.411 311.191 289.125C310.97 288.905 310.756 288.659 310.551 288.389C310.346 288.119 310.163 287.844 310.002 287.562C309.98 287.518 309.952 287.469 309.919 287.413C309.88 287.353 309.844 287.306 309.811 287.273C309.783 287.245 309.744 287.24 309.695 287.257C309.568 287.318 309.438 287.387 309.306 287.465C309.168 287.537 309.027 287.607 308.884 287.673C308.746 287.734 308.605 287.787 308.462 287.832C308.324 287.871 308.183 287.885 308.039 287.875C308.366 288.211 308.649 288.602 308.888 289.049C309.121 289.49 309.307 289.956 309.447 290.448C309.586 290.928 309.676 291.419 309.716 291.922C309.756 292.424 309.747 292.905 309.687 293.364L309.522 293.364C309.504 293.027 309.439 292.671 309.328 292.296C309.216 291.921 309.074 291.554 308.902 291.195C308.73 290.836 308.533 290.497 308.311 290.177C308.094 289.852 307.867 289.571 307.629 289.334C307.507 289.213 307.382 289.111 307.255 289.029C307.122 288.941 306.992 288.861 306.865 288.789C306.743 288.712 306.627 288.641 306.516 288.575C306.4 288.504 306.295 288.421 306.201 288.327C306.046 288.173 305.973 288.002 305.984 287.814C305.994 287.626 306.077 287.455 306.231 287.3C306.314 287.217 306.402 287.178 306.496 287.183C306.584 287.183 306.678 287.199 306.778 287.232C306.877 287.265 306.985 287.295 307.101 287.322C307.217 287.349 307.341 287.346 307.474 287.313C307.64 287.268 307.816 287.179 308.003 287.046C308.191 286.913 308.384 286.769 308.582 286.613C308.781 286.458 308.979 286.303 309.178 286.148C309.376 285.992 309.572 285.873 309.765 285.79C309.958 285.695 310.146 285.651 310.328 285.656C310.505 285.655 310.671 285.732 310.826 285.886C310.903 285.963 310.973 286.049 311.034 286.142C311.095 286.225 311.145 286.313 311.184 286.407C311.35 286.705 311.531 287 311.725 287.292C311.919 287.573 312.135 287.832 312.373 288.069C312.578 288.273 312.781 288.447 312.98 288.59C313.179 288.722 313.381 288.807 313.585 288.845C313.79 288.883 313.994 288.866 314.198 288.793C314.403 288.721 314.612 288.577 314.827 288.361C315.135 288.05 315.331 287.704 315.412 287.323C315.489 286.936 315.49 286.53 315.417 286.105L315.525 286.063Z" fill="black"/>
<path d="M321.68 276.163C322.099 276.514 322.43 276.909 322.674 277.349C322.917 277.788 323.065 278.243 323.117 278.716C323.17 279.188 323.122 279.663 322.976 280.142C322.834 280.615 322.585 281.063 322.228 281.488C321.911 281.865 321.553 282.146 321.154 282.33C320.765 282.514 320.36 282.613 319.94 282.628C319.52 282.642 319.104 282.573 318.691 282.42C318.272 282.263 317.881 282.031 317.516 281.724C317.211 281.468 316.955 281.183 316.751 280.868C316.551 280.547 316.399 280.211 316.297 279.859C316.188 279.503 316.125 279.134 316.109 278.753C316.086 278.367 316.099 277.98 316.149 277.593L316.32 277.553C316.402 278.051 316.56 278.52 316.792 278.959C317.025 279.399 317.338 279.785 317.733 280.117C318.02 280.358 318.349 280.562 318.718 280.73C319.087 280.886 319.464 280.983 319.85 281.022C320.236 281.06 320.612 281.019 320.979 280.898C321.345 280.778 321.664 280.556 321.935 280.233C322.106 280.029 322.225 279.803 322.292 279.553C322.359 279.303 322.376 279.052 322.343 278.8C322.315 278.542 322.244 278.298 322.129 278.07C322.014 277.83 321.858 277.628 321.66 277.462C321.469 277.301 321.258 277.175 321.029 277.084C320.798 276.983 320.562 276.917 320.321 276.888C320.074 276.854 319.828 276.856 319.581 276.895C319.329 276.928 319.091 276.993 318.867 277.09C318.738 277.146 318.625 277.208 318.525 277.278C318.431 277.341 318.326 277.412 318.211 277.488C318.17 277.525 318.123 277.562 318.071 277.6C318.013 277.633 317.957 277.663 317.904 277.69C317.845 277.711 317.785 277.722 317.724 277.722C317.663 277.722 317.605 277.699 317.552 277.654C317.444 277.563 317.378 277.442 317.353 277.289C317.329 277.135 317.329 276.977 317.354 276.814C317.372 276.646 317.414 276.488 317.478 276.338C317.537 276.183 317.604 276.061 317.679 275.971C317.935 275.666 318.239 275.462 318.591 275.359C318.942 275.256 319.303 275.228 319.673 275.273C320.043 275.318 320.404 275.423 320.757 275.586C321.109 275.749 321.417 275.941 321.68 276.163Z" fill="black"/>
<path d="M332.573 264.248C332.718 264.531 332.847 264.817 332.959 265.106C333.076 265.388 333.154 265.671 333.193 265.956C333.232 266.241 333.223 266.526 333.167 266.811C333.111 267.096 332.984 267.379 332.786 267.66C332.562 267.98 332.29 268.199 331.968 268.317C331.653 268.44 331.31 268.495 330.937 268.482C330.563 268.458 330.173 268.381 329.769 268.25C329.369 268.113 328.974 267.956 328.583 267.777C328.193 267.599 327.82 267.41 327.465 267.209C327.104 267.003 326.78 266.819 326.493 266.656C326.504 266.845 326.586 267.122 326.74 267.488C326.888 267.849 327.081 268.247 327.32 268.681C327.56 269.116 327.835 269.567 328.147 270.033C328.464 270.494 328.794 270.921 329.139 271.314C329.215 271.396 329.285 271.493 329.35 271.605C329.419 271.711 329.469 271.823 329.501 271.941C329.544 272.056 329.562 272.174 329.555 272.293C329.554 272.416 329.518 272.529 329.446 272.632C329.33 272.798 329.187 272.879 329.018 272.875C328.853 272.865 328.686 272.824 328.517 272.753C327.574 272.37 326.705 271.956 325.909 271.513C325.117 271.063 324.351 270.578 323.608 270.058C323.429 269.933 323.296 269.796 323.208 269.649C323.119 269.491 323.068 269.332 323.057 269.171C323.039 269.006 323.06 268.839 323.12 268.672C323.174 268.5 323.255 268.337 323.362 268.183C323.376 268.164 323.396 268.135 323.423 268.097C323.454 268.052 323.49 268.015 323.53 267.986C323.563 267.952 323.598 267.929 323.635 267.916C323.672 267.904 323.705 267.913 323.732 267.941C324.454 268.695 325.252 269.374 326.127 269.977C326.995 270.576 327.858 271.114 328.716 271.591C328.445 271.296 328.156 270.941 327.847 270.524C327.536 270.096 327.238 269.649 326.955 269.183C326.669 268.706 326.414 268.232 326.191 267.761C325.966 267.279 325.804 266.836 325.705 266.433C325.659 266.239 325.633 266.059 325.626 265.892C325.617 265.714 325.671 265.542 325.788 265.375C325.855 265.279 325.93 265.213 326.013 265.176C326.097 265.139 326.181 265.121 326.265 265.123C326.354 265.118 326.444 265.134 326.534 265.168C326.622 265.192 326.706 265.222 326.785 265.259C326.993 265.357 327.256 265.493 327.572 265.667C327.889 265.841 328.229 266.022 328.594 266.211C328.962 266.393 329.341 266.567 329.729 266.734C330.111 266.897 330.478 267.02 330.829 267.104C331.174 267.184 331.487 267.207 331.767 267.175C332.047 267.142 332.262 267.021 332.409 266.809C332.531 266.637 332.615 266.448 332.663 266.243C332.709 266.027 332.733 265.81 332.734 265.591C332.728 265.368 332.703 265.145 332.658 264.923C332.607 264.697 332.55 264.485 332.487 264.288L332.573 264.248Z" fill="black"/>
<path d="M338.874 253.547C339.038 253.84 339.17 254.151 339.269 254.479C339.372 254.8 339.434 255.13 339.456 255.467C339.482 255.798 339.458 256.127 339.386 256.455C339.32 256.787 339.202 257.102 339.03 257.4C338.776 257.839 338.477 258.185 338.132 258.438C337.792 258.683 337.426 258.855 337.035 258.954C336.638 259.049 336.223 259.08 335.791 259.047C335.359 259.014 334.933 258.939 334.513 258.823C334.086 258.703 333.668 258.551 333.259 258.369C332.85 258.187 332.469 257.994 332.118 257.791C331.793 257.604 331.469 257.399 331.147 257.176C330.817 256.95 330.489 256.706 330.162 256.445C330.047 256.658 329.932 256.866 329.814 257.069C329.701 257.266 329.588 257.462 329.474 257.658C329.4 257.786 329.313 257.93 329.212 258.088C329.112 258.247 328.997 258.383 328.867 258.498C328.738 258.613 328.598 258.69 328.449 258.73C328.299 258.77 328.133 258.737 327.951 258.632C327.849 258.573 327.78 258.506 327.742 258.43C327.701 258.361 327.686 258.285 327.698 258.202C327.7 258.121 327.722 258.035 327.766 257.943C327.8 257.854 327.842 257.766 327.893 257.678C327.951 257.577 328.107 257.346 328.36 256.987C328.612 256.628 328.913 256.192 329.263 255.682C328.562 255.051 327.903 254.381 327.284 253.672C326.669 252.956 326.141 252.245 325.701 251.539L325.783 251.397C326.395 252.04 327.028 252.663 327.681 253.265C328.338 253.862 329.029 254.423 329.753 254.95C330.072 254.476 330.396 253.986 330.724 253.481C331.049 252.965 331.356 252.456 331.645 251.956C332.071 251.218 332.411 250.616 332.663 250.148C332.915 249.68 333.107 249.309 333.239 249.033C333.392 248.706 333.5 248.457 333.563 248.286L333.759 248.345C333.619 248.806 333.443 249.322 333.23 249.894C333.01 250.461 332.764 251.059 332.491 251.687C332.212 252.31 331.914 252.95 331.598 253.607C331.282 254.263 330.958 254.911 330.625 255.548C330.753 255.64 330.888 255.727 331.03 255.809C331.165 255.887 331.3 255.965 331.436 256.044C331.76 256.231 332.127 256.425 332.535 256.624C332.946 256.817 333.375 256.988 333.821 257.138C334.261 257.283 334.709 257.398 335.166 257.482C335.62 257.554 336.057 257.563 336.477 257.508C336.894 257.442 337.282 257.301 337.642 257.085C338.001 256.869 338.306 256.544 338.556 256.111C338.787 255.712 338.906 255.303 338.914 254.883C338.926 254.457 338.887 254.024 338.798 253.584L338.874 253.547Z" fill="black"/>
<path d="M339.511 242.162C339.589 242.198 339.646 242.26 339.683 242.346C339.713 242.429 339.71 242.51 339.673 242.588C339.643 242.651 339.594 242.71 339.526 242.764C339.45 242.815 339.366 242.875 339.273 242.943C339.184 243.005 339.093 243.087 339.001 243.191C338.905 243.284 338.823 243.405 338.753 243.553C338.59 243.9 338.553 244.262 338.642 244.641C338.728 245.009 338.885 245.364 339.113 245.704C339.345 246.038 339.618 246.339 339.932 246.608C340.246 246.876 340.548 247.079 340.838 247.215C341.043 247.311 341.252 247.389 341.467 247.446C341.674 247.501 341.879 247.524 342.082 247.516C342.281 247.497 342.466 247.433 342.638 247.324C342.803 247.212 342.942 247.035 343.055 246.795C343.175 246.541 343.244 246.275 343.262 245.999C343.273 245.719 343.249 245.44 343.189 245.162C342.967 245.048 342.746 244.901 342.529 244.721C342.308 244.531 342.102 244.326 341.911 244.107C341.714 243.884 341.537 243.654 341.381 243.417C341.229 243.173 341.102 242.936 341.003 242.708L341.152 242.61C341.356 242.801 341.577 242.974 341.815 243.129C342.053 243.284 342.295 243.42 342.543 243.536C342.797 243.656 343.047 243.748 343.294 243.812C343.54 243.876 343.773 243.895 343.992 243.868C344.205 243.839 344.404 243.756 344.589 243.618C344.767 243.478 344.925 243.263 345.061 242.973C345.227 242.619 345.299 242.256 345.276 241.882C345.253 241.509 345.171 241.151 345.03 240.808L345.113 240.744C345.3 240.987 345.459 241.265 345.589 241.576C345.718 241.888 345.815 242.214 345.879 242.555C345.94 242.885 345.956 243.217 345.929 243.55C345.902 243.882 345.824 244.186 345.694 244.462C345.511 244.851 345.249 245.116 344.906 245.257C344.57 245.401 344.211 245.439 343.829 245.372C343.986 245.808 344.081 246.259 344.113 246.723C344.141 247.176 344.06 247.605 343.871 248.008C343.731 248.304 343.55 248.543 343.327 248.723C343.114 248.899 342.88 249.022 342.623 249.091C342.366 249.16 342.094 249.179 341.806 249.147C341.515 249.105 341.232 249.019 340.956 248.89C340.638 248.74 340.336 248.537 340.05 248.282C339.761 248.017 339.495 247.719 339.253 247.389C339.015 247.052 338.809 246.692 338.635 246.308C338.462 245.924 338.334 245.536 338.251 245.143C338.171 244.743 338.145 244.351 338.17 243.965C338.196 243.58 338.289 243.218 338.448 242.879C338.485 242.801 338.54 242.711 338.615 242.608C338.682 242.501 338.762 242.405 338.854 242.319C338.947 242.233 339.048 242.173 339.159 242.139C339.274 242.097 339.391 242.105 339.511 242.162Z" fill="black"/>
<path d="M354.224 212.951C354.458 213.161 354.677 213.396 354.882 213.655C355.078 213.911 355.243 214.183 355.374 214.471C355.506 214.758 355.589 215.06 355.623 215.378C355.667 215.69 355.643 216.011 355.552 216.343C355.424 216.81 355.161 217.147 354.764 217.353C354.366 217.56 353.89 217.688 353.333 217.738C352.771 217.778 352.155 217.762 351.486 217.692C350.809 217.619 350.133 217.53 349.457 217.425C349.718 217.683 349.997 217.934 350.295 218.178C350.587 218.413 350.899 218.648 351.231 218.885C351.563 219.123 351.906 219.363 352.26 219.606C352.614 219.849 352.977 220.107 353.348 220.379C353.428 220.442 353.518 220.511 353.619 220.587C353.712 220.662 353.797 220.75 353.874 220.852C353.961 220.949 354.025 221.056 354.066 221.172C354.106 221.289 354.108 221.415 354.071 221.55C354.044 221.648 353.998 221.729 353.932 221.792C353.866 221.855 353.791 221.907 353.706 221.948C353.631 221.985 353.55 222.015 353.462 222.039C353.369 222.054 353.285 222.067 353.209 222.079C352.828 222.136 352.448 222.162 352.07 222.155C351.691 222.148 351.304 222.126 350.908 222.09C350.515 222.047 350.101 221.99 349.667 221.919C349.233 221.848 348.772 221.77 348.285 221.685C348.611 221.945 348.925 222.185 349.229 222.406C349.527 222.618 349.83 222.831 350.135 223.045C350.436 223.249 350.75 223.461 351.079 223.681C351.401 223.891 351.752 224.117 352.132 224.359C352.221 224.416 352.317 224.479 352.42 224.548C352.517 224.607 352.604 224.676 352.68 224.753C352.758 224.823 352.815 224.908 352.853 225.007C352.892 225.099 352.895 225.206 352.862 225.326C352.808 225.522 352.705 225.647 352.552 225.703C352.407 225.76 352.243 225.796 352.061 225.81C351.81 225.839 351.473 225.839 351.051 225.812C350.622 225.783 350.16 225.737 349.667 225.675C349.174 225.612 348.67 225.53 348.155 225.429C347.64 225.328 347.164 225.217 346.727 225.097C346.305 224.981 346.027 224.783 345.893 224.503C345.752 224.221 345.732 223.896 345.834 223.527C345.84 223.504 345.849 223.47 345.862 223.425C345.874 223.38 345.894 223.337 345.922 223.295C345.942 223.252 345.967 223.219 345.998 223.195C346.031 223.163 346.065 223.157 346.101 223.175C346.61 223.387 347.098 223.57 347.566 223.724C348.035 223.877 348.496 224.012 348.95 224.128C349.396 224.243 349.843 224.342 350.291 224.424C350.732 224.497 351.189 224.562 351.659 224.618C351.265 224.372 350.889 224.135 350.53 223.907C350.174 223.671 349.822 223.432 349.475 223.191C349.128 222.95 348.78 222.7 348.429 222.442C348.074 222.174 347.702 221.889 347.315 221.588C347.116 221.428 346.986 221.283 346.924 221.153C346.865 221.015 346.859 220.859 346.907 220.686C346.967 220.468 347.097 220.321 347.295 220.246C347.496 220.163 347.707 220.132 347.929 220.153C348.329 220.198 348.739 220.254 349.159 220.321C349.57 220.385 349.987 220.447 350.408 220.507C350.829 220.566 351.25 220.612 351.67 220.647C352.082 220.679 352.49 220.686 352.892 220.667C352.542 220.409 352.176 220.146 351.796 219.879C351.408 219.611 351.021 219.338 350.635 219.062C350.249 218.786 349.873 218.504 349.507 218.217C349.142 217.922 348.803 217.622 348.49 217.317C348.344 217.172 348.231 217.023 348.151 216.871C348.065 216.71 348.049 216.535 348.1 216.347C348.129 216.242 348.182 216.155 348.257 216.086C348.325 216.016 348.409 215.962 348.508 215.925C348.6 215.885 348.7 215.86 348.809 215.849C348.909 215.836 349.011 215.836 349.113 215.848C349.342 215.87 349.633 215.914 349.988 215.979C350.345 216.037 350.727 216.093 351.133 216.148C351.541 216.196 351.956 216.233 352.378 216.26C352.793 216.285 353.18 216.278 353.539 216.239C353.89 216.198 354.193 216.115 354.446 215.99C354.699 215.865 354.861 215.675 354.931 215.418C354.989 215.207 355.007 214.994 354.986 214.777C354.957 214.559 354.906 214.346 354.833 214.14C354.753 213.931 354.653 213.734 354.534 213.547C354.41 213.351 354.285 213.171 354.16 213.007L354.224 212.951Z" fill="black"/>
<path d="M354.468 201.164C355.007 201.256 355.493 201.43 355.925 201.686C356.357 201.942 356.714 202.26 356.998 202.641C357.282 203.022 357.481 203.457 357.597 203.944C357.713 204.423 357.725 204.936 357.632 205.483C357.549 205.968 357.382 206.392 357.13 206.753C356.887 207.108 356.588 207.398 356.233 207.623C355.878 207.847 355.483 207.998 355.05 208.075C354.609 208.15 354.154 208.148 353.684 208.068C353.292 208.001 352.927 207.884 352.591 207.715C352.257 207.54 351.956 207.326 351.69 207.075C351.416 206.822 351.176 206.535 350.969 206.215C350.754 205.893 350.57 205.552 350.418 205.194L350.545 205.073C350.867 205.46 351.24 205.785 351.663 206.048C352.086 206.31 352.551 206.484 353.06 206.571C353.429 206.634 353.816 206.644 354.219 206.602C354.616 206.551 354.991 206.444 355.344 206.282C355.696 206.12 356 205.895 356.256 205.605C356.511 205.316 356.674 204.964 356.745 204.548C356.789 204.286 356.777 204.03 356.709 203.781C356.641 203.531 356.528 203.306 356.372 203.105C356.218 202.897 356.033 202.723 355.819 202.583C355.599 202.435 355.362 202.339 355.108 202.295C354.861 202.253 354.616 202.251 354.372 202.289C354.121 202.318 353.885 202.38 353.662 202.477C353.432 202.573 353.22 202.699 353.027 202.856C352.826 203.012 352.653 203.189 352.509 203.386C352.426 203.499 352.359 203.61 352.309 203.721C352.26 203.823 352.205 203.937 352.144 204.061C352.127 204.114 352.106 204.17 352.08 204.228C352.046 204.286 352.013 204.34 351.981 204.39C351.941 204.439 351.895 204.478 351.842 204.509C351.789 204.54 351.728 204.549 351.659 204.537C351.52 204.514 351.402 204.442 351.303 204.322C351.205 204.202 351.125 204.066 351.064 203.913C350.995 203.758 350.951 203.6 350.931 203.438C350.903 203.275 350.899 203.136 350.919 203.02C350.985 202.627 351.145 202.298 351.396 202.032C351.647 201.765 351.944 201.558 352.286 201.411C352.629 201.263 352.993 201.17 353.38 201.133C353.766 201.096 354.129 201.106 354.468 201.164Z" fill="black"/>
<path d="M352.387 187.86C352.784 187.895 353.234 187.986 353.739 188.132C354.245 188.27 354.762 188.453 355.291 188.68C355.82 188.907 356.338 189.168 356.845 189.464C357.346 189.751 357.789 190.064 358.174 190.404C358.561 190.736 358.864 191.084 359.083 191.449C359.309 191.814 359.406 192.179 359.374 192.545C359.354 192.771 359.231 192.971 359.004 193.148C358.776 193.324 358.512 193.477 358.21 193.607C357.909 193.73 357.606 193.832 357.301 193.915C356.996 193.998 356.759 194.064 356.59 194.112C356.108 194.234 355.629 194.337 355.151 194.42C354.673 194.504 354.188 194.579 353.696 194.645C353.664 194.65 353.605 194.657 353.518 194.665C353.423 194.672 353.327 194.687 353.231 194.71C353.136 194.726 353.051 194.749 352.978 194.782C352.897 194.806 352.856 194.834 352.853 194.865C352.847 194.935 352.851 195.018 352.866 195.114C352.882 195.201 352.906 195.29 352.937 195.379C352.961 195.467 352.988 195.556 353.02 195.645C353.052 195.726 353.081 195.795 353.107 195.852L352.982 195.935C352.897 195.834 352.8 195.696 352.689 195.521C352.579 195.347 352.481 195.166 352.396 194.978C352.303 194.79 352.229 194.599 352.176 194.406C352.114 194.212 352.09 194.045 352.102 193.905C352.119 193.718 352.214 193.57 352.388 193.46C352.556 193.341 352.78 193.247 353.06 193.178C353.334 193.1 353.657 193.038 354.029 192.992C354.403 192.939 354.796 192.883 355.209 192.826C355.272 192.815 355.4 192.795 355.59 192.765C355.781 192.735 356.004 192.696 356.26 192.647C356.507 192.599 356.77 192.547 357.05 192.493C357.329 192.432 357.586 192.368 357.819 192.302C358.045 192.228 358.236 192.155 358.392 192.082C358.547 192.009 358.628 191.934 358.635 191.856C358.654 191.638 358.594 191.429 358.455 191.229C358.308 191.02 358.11 190.822 357.86 190.635C357.61 190.441 357.328 190.263 357.013 190.102C356.69 189.94 356.361 189.798 356.027 189.674C355.693 189.551 355.368 189.452 355.053 189.377C354.739 189.294 354.461 189.242 354.22 189.221C353.768 189.181 353.317 189.189 352.865 189.243C352.405 189.297 351.996 189.41 351.635 189.582C351.268 189.746 350.973 189.975 350.751 190.269C350.53 190.555 350.432 190.912 350.458 191.337L350.349 191.363C350.269 191.113 350.213 190.861 350.181 190.607C350.148 190.353 350.143 190.102 350.165 189.853C350.223 189.183 350.437 188.669 350.806 188.309C351.175 187.95 351.702 187.8 352.387 187.86Z" fill="black"/>
<path d="M357.944 175.205C358.239 175.411 358.514 175.66 358.769 175.951C359.024 176.235 359.244 176.55 359.428 176.895C359.612 177.233 359.757 177.59 359.863 177.966C359.968 178.334 360.02 178.706 360.016 179.081C360.011 179.612 359.935 180.108 359.79 180.567C359.653 181.027 359.442 181.427 359.157 181.768C358.873 182.109 358.519 182.375 358.095 182.566C357.663 182.757 357.162 182.85 356.592 182.844C356.03 182.839 355.507 182.732 355.025 182.524C354.535 182.309 354.112 182.019 353.756 181.656C353.392 181.286 353.107 180.853 352.901 180.359C352.695 179.865 352.595 179.336 352.601 178.774C352.603 178.508 352.645 178.262 352.725 178.037C352.798 177.803 352.909 177.601 353.059 177.431C353.201 177.26 353.378 177.129 353.59 177.037C353.802 176.938 354.045 176.889 354.318 176.892C354.646 176.895 354.935 176.965 355.184 177.1C355.432 177.235 355.649 177.413 355.835 177.634C356.02 177.854 356.174 178.106 356.296 178.388C356.418 178.663 356.517 178.953 356.592 179.258C356.667 179.556 356.723 179.853 356.759 180.151C356.788 180.44 356.801 180.706 356.798 180.948L356.795 181.229C357.507 181.135 358.053 180.859 358.433 180.401C358.812 179.944 359.006 179.309 359.014 178.497C359.019 177.919 358.923 177.355 358.726 176.806C358.528 176.25 358.252 175.747 357.897 175.298L357.944 175.205ZM356.444 181.261L356.446 180.968C356.449 180.687 356.409 180.397 356.326 180.099C356.235 179.802 356.105 179.535 355.935 179.299C355.758 179.055 355.541 178.853 355.285 178.695C355.029 178.536 354.737 178.455 354.408 178.452C354.088 178.449 353.822 178.516 353.61 178.655C353.397 178.786 353.29 179.019 353.286 179.355C353.283 179.699 353.385 179.992 353.594 180.237C353.795 180.473 354.047 180.667 354.35 180.818C354.645 180.97 354.961 181.082 355.296 181.156C355.624 181.222 355.916 181.256 356.174 181.258L356.444 181.261Z" fill="black"/>
<path d="M344.413 163.932C344.951 163.893 345.491 163.933 346.032 164.051C346.564 164.162 347.089 164.332 347.607 164.562C348.117 164.792 348.611 165.074 349.089 165.408C349.559 165.734 349.999 166.095 350.411 166.488C350.815 166.882 351.19 167.298 351.534 167.736C351.871 168.174 352.157 168.616 352.392 169.061L352.223 169.155C351.909 168.598 351.484 168.076 350.948 167.59C350.404 167.096 349.806 166.672 349.154 166.319C348.494 165.959 347.809 165.687 347.098 165.503C346.388 165.31 345.701 165.238 345.039 165.285C344.906 165.295 344.771 165.316 344.632 165.35C344.493 165.375 344.367 165.423 344.255 165.494C344.142 165.557 344.054 165.641 343.991 165.748C343.92 165.855 343.891 165.99 343.902 166.153C343.935 166.613 344.121 167.027 344.461 167.394C344.8 167.762 345.242 168.086 345.787 168.369C346.324 168.644 346.936 168.878 347.623 169.072C348.311 169.266 349.015 169.419 349.735 169.532C350.456 169.645 351.167 169.72 351.866 169.756C352.565 169.785 353.203 169.778 353.78 169.737C354.084 169.716 354.422 169.676 354.793 169.618C355.157 169.553 355.523 169.464 355.891 169.352C356.258 169.232 356.616 169.089 356.964 168.923C357.304 168.75 357.603 168.544 357.86 168.307C358.117 168.061 358.32 167.78 358.47 167.464C358.612 167.149 358.668 166.788 358.64 166.383C358.621 166.126 358.555 165.911 358.441 165.739C358.326 165.56 358.179 165.421 358 165.324C357.82 165.22 357.619 165.148 357.397 165.109C357.175 165.07 356.951 165.058 356.725 165.075C356.375 165.1 356.008 165.177 355.626 165.306C355.243 165.427 354.899 165.6 354.594 165.826C354.288 166.043 354.041 166.312 353.852 166.631C353.663 166.949 353.584 167.315 353.613 167.728C353.621 167.845 353.642 167.965 353.674 168.088C353.698 168.204 353.734 168.319 353.781 168.433L353.669 168.512C353.43 168.239 353.225 167.94 353.053 167.616C352.873 167.284 352.769 166.931 352.742 166.557C352.714 166.16 352.774 165.799 352.924 165.475C353.073 165.151 353.276 164.874 353.534 164.644C353.791 164.407 354.095 164.22 354.446 164.086C354.788 163.944 355.139 163.86 355.497 163.835C356.035 163.796 356.544 163.854 357.025 164.008C357.505 164.153 357.933 164.378 358.307 164.68C358.673 164.983 358.97 165.357 359.197 165.803C359.424 166.241 359.557 166.733 359.596 167.278C359.63 167.746 359.573 168.165 359.427 168.536C359.289 168.898 359.089 169.222 358.827 169.507C358.565 169.792 358.258 170.037 357.904 170.242C357.543 170.448 357.164 170.62 356.766 170.758C356.361 170.896 355.954 171.004 355.544 171.08C355.134 171.156 354.742 171.208 354.368 171.234C353.683 171.283 352.93 171.278 352.111 171.219C351.292 171.152 350.469 171.031 349.642 170.855C348.806 170.672 347.998 170.428 347.216 170.123C346.427 169.811 345.723 169.439 345.104 169.005C344.485 168.563 343.979 168.055 343.586 167.48C343.192 166.905 342.97 166.255 342.918 165.531C342.882 165.024 343.003 164.639 343.282 164.377C343.553 164.115 343.93 163.966 344.413 163.932Z" fill="black"/>
<path d="M353.726 150.726C354.267 150.642 354.782 150.652 355.273 150.757C355.764 150.862 356.205 151.05 356.595 151.321C356.985 151.592 357.313 151.94 357.577 152.365C357.84 152.783 358.015 153.265 358.1 153.813C358.177 154.3 358.153 154.754 358.029 155.177C357.912 155.59 357.721 155.96 357.456 156.287C357.19 156.613 356.865 156.881 356.479 157.092C356.085 157.304 355.652 157.447 355.182 157.52C354.788 157.582 354.405 157.587 354.033 157.534C353.66 157.474 353.307 157.367 352.975 157.214C352.635 157.061 352.315 156.866 352.017 156.628C351.711 156.391 351.429 156.127 351.17 155.836L351.252 155.68C351.681 155.945 352.138 156.135 352.622 156.249C353.106 156.363 353.603 156.38 354.113 156.3C354.483 156.242 354.853 156.129 355.222 155.96C355.582 155.785 355.903 155.565 356.186 155.299C356.469 155.034 356.685 154.723 356.835 154.367C356.985 154.012 357.027 153.626 356.962 153.209C356.921 152.946 356.828 152.708 356.684 152.493C356.539 152.279 356.361 152.101 356.15 151.96C355.937 151.811 355.706 151.705 355.459 151.641C355.203 151.57 354.947 151.555 354.693 151.595C354.446 151.634 354.213 151.71 353.993 151.823C353.765 151.93 353.56 152.065 353.38 152.228C353.192 152.391 353.032 152.579 352.899 152.789C352.758 153.001 352.651 153.224 352.576 153.457C352.534 153.59 352.506 153.717 352.494 153.837C352.48 153.95 352.464 154.075 352.446 154.212C352.446 154.268 352.444 154.327 352.438 154.392C352.425 154.457 352.41 154.518 352.396 154.576C352.373 154.635 352.342 154.687 352.302 154.733C352.261 154.779 352.207 154.807 352.137 154.818C351.998 154.84 351.863 154.81 351.732 154.728C351.6 154.645 351.481 154.541 351.374 154.416C351.26 154.291 351.168 154.156 351.097 154.008C351.019 153.863 350.971 153.732 350.953 153.616C350.891 153.222 350.937 152.859 351.09 152.527C351.244 152.194 351.459 151.904 351.737 151.655C352.014 151.406 352.33 151.202 352.685 151.044C353.04 150.885 353.387 150.779 353.726 150.726Z" fill="black"/>
</svg>
